<svg width="630" height="526" viewBox="0 0 630 526" fill="none" xmlns="http://www.w3.org/2000/svg">
<g clip-path="url(#clip0_199_204)">
<path d="M430.393 -8.06941e-06L0 255.072L12.9438 276.919L443.337 21.847L430.393 -8.06941e-06Z" fill="#F2F2F2"/>
<path d="M523.938 21.3848L93.5449 276.457L106.489 298.304L536.882 43.2318L523.938 21.3848Z" fill="#F2F2F2"/>
<path d="M606.793 44.7745L176.399 299.847L189.343 321.694L619.737 66.6216L606.793 44.7745Z" fill="#F2F2F2"/>
<path d="M280.338 299.006C354.759 299.006 415.089 238.667 415.089 164.235C415.089 89.803 354.759 29.4639 280.338 29.4639C205.917 29.4639 145.587 89.803 145.587 164.235C145.587 238.667 205.917 299.006 280.338 299.006Z" fill="white"/>
<path d="M144.585 164.235C144.585 89.3693 205.484 28.4615 280.338 28.4615C355.193 28.4615 416.092 89.3693 416.092 164.235C416.092 239.101 355.193 300.009 280.338 300.009C205.484 300.009 144.585 239.101 144.585 164.235ZM146.59 164.235C146.59 237.995 206.589 298.004 280.338 298.004C354.088 298.004 414.087 237.995 414.087 164.235C414.087 90.4749 354.088 30.4664 280.338 30.4664C206.589 30.4664 146.59 90.4749 146.59 164.235Z" fill="#8E87DF"/>
<path d="M256.317 164.821C256.317 160.069 257.726 155.425 260.366 151.474C263.005 147.523 266.757 144.444 271.146 142.625C275.535 140.807 280.365 140.331 285.024 141.258C289.684 142.185 293.964 144.473 297.324 147.833C300.683 151.193 302.971 155.474 303.898 160.134C304.824 164.794 304.349 169.625 302.531 174.015C300.713 178.405 297.634 182.157 293.684 184.797C289.733 187.436 285.089 188.845 280.338 188.845C273.968 188.845 267.858 186.314 263.353 181.809C258.848 177.303 256.317 171.193 256.317 164.821ZM280.338 141.968C274.28 141.975 268.473 144.385 264.189 148.669C259.905 152.954 257.496 158.762 257.489 164.821C257.489 169.341 258.829 173.759 261.34 177.517C263.851 181.275 267.419 184.204 271.594 185.934C275.769 187.664 280.364 188.116 284.796 187.234C289.228 186.353 293.3 184.176 296.495 180.98C299.691 177.784 301.867 173.712 302.748 169.279C303.63 164.846 303.177 160.251 301.448 156.076C299.719 151.9 296.79 148.331 293.033 145.82C289.275 143.309 284.857 141.968 280.338 141.968Z" fill="#8E87DF"/>
<path d="M234.64 164.821C234.64 155.781 237.32 146.945 242.341 139.429C247.363 131.913 254.5 126.054 262.85 122.595C271.2 119.136 280.389 118.231 289.253 119.994C298.118 121.758 306.26 126.111 312.651 132.503C319.042 138.895 323.395 147.039 325.158 155.904C326.921 164.77 326.016 173.96 322.558 182.312C319.099 190.663 313.241 197.801 305.726 202.823C298.211 207.846 289.376 210.526 280.338 210.526C274.337 210.526 268.394 209.344 262.85 207.047C257.306 204.75 252.268 201.383 248.024 197.139C243.781 192.895 240.415 187.857 238.118 182.312C235.822 176.766 234.64 170.823 234.64 164.821ZM280.338 120.288C271.531 120.288 262.923 122.9 255.6 127.793C248.278 132.686 242.571 139.642 239.201 147.779C235.831 155.916 234.949 164.87 236.667 173.509C238.385 182.148 242.626 190.083 248.853 196.311C255.08 202.539 263.014 206.78 271.651 208.498C280.288 210.217 289.241 209.335 297.377 205.964C305.514 202.594 312.468 196.886 317.36 189.562C322.253 182.239 324.864 173.629 324.864 164.821C324.851 153.014 320.156 141.695 311.808 133.346C303.461 124.997 292.143 120.301 280.338 120.288Z" fill="#CCCCCC"/>
<path d="M191.285 164.821C191.285 147.205 196.508 129.985 206.293 115.338C216.079 100.692 229.987 89.2758 246.259 82.5346C262.531 75.7934 280.437 74.0296 297.712 77.4662C314.986 80.9029 330.854 89.3856 343.308 101.842C355.762 114.298 364.244 130.168 367.68 147.445C371.116 164.722 369.353 182.63 362.612 198.905C355.872 215.18 344.458 229.09 329.813 238.877C315.169 248.664 297.951 253.887 280.338 253.887C256.728 253.861 234.093 244.468 217.398 227.771C200.703 211.073 191.312 188.435 191.285 164.821ZM280.338 76.9268C262.957 76.9268 245.966 82.0817 231.514 91.7396C217.062 101.398 205.798 115.125 199.146 131.185C192.495 147.246 190.755 164.919 194.146 181.968C197.536 199.018 205.906 214.679 218.197 226.972C230.487 239.264 246.146 247.635 263.193 251.026C280.241 254.418 297.911 252.677 313.969 246.025C330.027 239.372 343.752 228.107 353.409 213.652C363.065 199.198 368.219 182.205 368.219 164.821C368.193 141.518 358.926 119.177 342.45 102.7C325.975 86.2219 303.638 76.9532 280.338 76.9268Z" fill="#CCCCCC"/>
<path d="M280.338 175.368C286.485 175.368 291.469 170.384 291.469 164.235C291.469 158.086 286.485 153.102 280.338 153.102C274.19 153.102 269.206 158.086 269.206 164.235C269.206 170.384 274.19 175.368 280.338 175.368Z" fill="#0077FF"/>
<path d="M251.63 207.596C257.777 207.596 262.761 202.612 262.761 196.463C262.761 190.314 257.777 185.33 251.63 185.33C245.482 185.33 240.498 190.314 240.498 196.463C240.498 202.612 245.482 207.596 251.63 207.596Z" fill="#0077FF"/>
<path d="M363.629 202.908C369.776 202.908 374.76 197.924 374.76 191.775C374.76 185.626 369.776 180.642 363.629 180.642C357.481 180.642 352.497 185.626 352.497 191.775C352.497 197.924 357.481 202.908 363.629 202.908Z" fill="#0077FF"/>
<path d="M280.338 169.509C283.25 169.509 285.611 167.148 285.611 164.235C285.611 161.323 283.25 158.961 280.338 158.961C277.426 158.961 275.065 161.323 275.065 164.235C275.065 167.148 277.426 169.509 280.338 169.509Z" fill="#1B3647"/>
<path d="M363.628 197.049C366.54 197.049 368.901 194.688 368.901 191.775C368.901 188.863 366.54 186.502 363.628 186.502C360.716 186.502 358.355 188.863 358.355 191.775C358.355 194.688 360.716 197.049 363.628 197.049Z" fill="#1B3647"/>
<path d="M251.63 202.323C254.542 202.323 256.903 199.961 256.903 197.049C256.903 194.136 254.542 191.775 251.63 191.775C248.718 191.775 246.357 194.136 246.357 197.049C246.357 199.961 248.718 202.323 251.63 202.323Z" fill="#1B3647"/>
<path d="M34.2709 110.327C37.183 110.327 39.5438 107.965 39.5438 105.053C39.5438 102.14 37.183 99.7793 34.2709 99.7793C31.3588 99.7793 28.998 102.14 28.998 105.053C28.998 107.965 31.3588 110.327 34.2709 110.327Z" fill="#0077FF"/>
<path d="M280.045 105.346H48.624V104.174H281.217V164.528H280.045V105.346Z" fill="#1B3647"/>
<path d="M19.0381 105.053C19.0381 102.04 19.9315 99.0942 21.6053 96.5888C23.2791 94.0834 25.6581 92.1307 28.4415 90.9776C31.2249 89.8245 34.2877 89.5228 37.2426 90.1106C40.1975 90.6985 42.9117 92.1494 45.042 94.2801C47.1724 96.4107 48.6231 99.1254 49.2109 102.081C49.7987 105.036 49.497 108.099 48.3441 110.883C47.1912 113.667 45.2387 116.046 42.7337 117.72C40.2287 119.394 37.2836 120.288 34.2709 120.288C32.2705 120.288 30.2896 119.894 28.4415 119.128C26.5934 118.363 24.9142 117.24 23.4997 115.826C22.0852 114.411 20.9631 112.732 20.1976 110.883C19.4321 109.035 19.0381 107.054 19.0381 105.053ZM34.2709 90.9898C31.4899 90.9898 28.7713 91.8146 26.459 93.3599C24.1467 94.9052 22.3444 97.1015 21.2802 99.6712C20.2159 102.241 19.9375 105.069 20.48 107.796C21.0226 110.524 22.3617 113.03 24.3282 114.997C26.2947 116.964 28.8001 118.303 31.5277 118.846C34.2552 119.388 37.0824 119.11 39.6517 118.046C42.221 116.981 44.4171 115.179 45.9621 112.866C47.5072 110.553 48.3318 107.834 48.3318 105.053C48.3276 101.324 46.8448 97.75 44.2088 95.1135C41.5727 92.4771 37.9988 90.9941 34.2709 90.9898Z" fill="#1B3647"/>
<path d="M69.4233 262.091C72.3354 262.091 74.6961 259.73 74.6961 256.817C74.6961 253.904 72.3354 251.543 69.4233 251.543C66.5111 251.543 64.1504 253.904 64.1504 256.817C64.1504 259.73 66.5111 262.091 69.4233 262.091Z" fill="#0077FF"/>
<path d="M54.1904 256.817C54.1904 253.804 55.0838 250.858 56.7576 248.353C58.4314 245.847 60.8104 243.895 63.5938 242.742C66.3773 241.589 69.4401 241.287 72.3949 241.875C75.3498 242.463 78.064 243.914 80.1943 246.044C82.3247 248.175 83.7755 250.889 84.3632 253.845C84.951 256.8 84.6493 259.863 83.4964 262.647C82.3434 265.431 80.391 267.81 77.886 269.484C75.381 271.158 72.4359 272.052 69.4232 272.052C65.3832 272.052 61.5087 270.447 58.652 267.59C55.7953 264.733 54.1904 260.858 54.1904 256.817ZM69.4232 242.754C66.6422 242.754 63.9236 243.579 61.6113 245.124C59.299 246.669 57.4967 248.866 56.4325 251.435C55.3682 254.005 55.0898 256.833 55.6323 259.561C56.1749 262.289 57.514 264.794 59.4805 266.761C61.447 268.728 63.9524 270.067 66.68 270.61C69.4075 271.152 72.2347 270.874 74.804 269.81C77.3734 268.745 79.5694 266.943 81.1144 264.63C82.6595 262.317 83.4841 259.598 83.4841 256.817C83.4799 253.089 81.9971 249.514 79.361 246.878C76.725 244.241 73.151 242.758 69.4232 242.754Z" fill="#1B3647"/>
<path d="M527.087 134.937C529.999 134.937 532.36 132.576 532.36 129.663C532.36 126.751 529.999 124.39 527.087 124.39C524.175 124.39 521.814 126.751 521.814 129.663C521.814 132.576 524.175 134.937 527.087 134.937Z" fill="#0077FF"/>
<path d="M511.855 129.663C511.855 126.65 512.749 123.705 514.423 121.199C516.096 118.694 518.475 116.741 521.259 115.588C524.042 114.435 527.105 114.133 530.06 114.721C533.015 115.309 535.729 116.76 537.859 118.891C539.99 121.021 541.44 123.736 542.028 126.691C542.616 129.646 542.314 132.71 541.161 135.493C540.009 138.277 538.056 140.657 535.551 142.331C533.046 144.005 530.101 144.898 527.088 144.898C525.088 144.898 523.107 144.504 521.259 143.739C519.411 142.973 517.732 141.851 516.317 140.436C514.903 139.021 513.781 137.342 513.015 135.493C512.249 133.645 511.855 131.664 511.855 129.663ZM527.088 115.6C523.36 115.605 519.786 117.088 517.15 119.724C514.514 122.36 513.032 125.935 513.027 129.663C513.027 132.445 513.852 135.164 515.397 137.476C516.942 139.789 519.138 141.591 521.707 142.656C524.277 143.72 527.104 143.999 529.831 143.456C532.559 142.914 535.064 141.574 537.031 139.607C538.997 137.641 540.336 135.135 540.879 132.407C541.422 129.679 541.143 126.851 540.079 124.282C539.015 121.712 537.212 119.516 534.9 117.97C532.588 116.425 529.869 115.6 527.088 115.6Z" fill="#1B3647"/>
<path d="M363.043 131.43L512.432 129.078L512.45 130.249L364.215 132.584V191.775H363.043V131.43Z" fill="#1B3647"/>
<path d="M84.0703 256.231H251.044V197.049H252.216V257.402H84.0703V256.231Z" fill="#1B3647"/>
<path d="M66.4941 132.593H2.04785V136.695H66.4941V132.593Z" fill="#CCCCCC"/>
<path d="M66.4941 144.312H2.04785V148.414H66.4941V144.312Z" fill="#CCCCCC"/>
<path d="M66.4941 156.032H2.04785V160.133H66.4941V156.032Z" fill="#CCCCCC"/>
<path d="M101.646 284.357H37.2002V288.459H101.646V284.357Z" fill="#CCCCCC"/>
<path d="M101.646 296.076H37.2002V300.178H101.646V296.076Z" fill="#CCCCCC"/>
<path d="M101.646 307.796H37.2002V311.897H101.646V307.796Z" fill="#CCCCCC"/>
<path d="M559.31 157.789H494.864V161.891H559.31V157.789Z" fill="#CCCCCC"/>
<path d="M559.31 169.509H494.864V173.61H559.31V169.509Z" fill="#CCCCCC"/>
<path d="M559.31 181.228H494.864V185.33H559.31V181.228Z" fill="#CCCCCC"/>
<path d="M589.99 507.259L580.826 510.535L563.83 476.738L577.357 471.903L589.99 507.259Z" fill="#FFB8B8"/>
<path d="M565.952 525.872L565.818 525.499C564.732 522.447 564.9 519.09 566.286 516.162C567.671 513.234 570.162 510.976 573.21 509.883L591.26 503.431L595.504 515.31L565.952 525.872Z" fill="#1B3647"/>
<path d="M530.392 516.326L520.659 516.325L516.029 478.778L530.394 478.779L530.392 516.326Z" fill="#FFB8B8"/>
<path d="M532.874 525.762L501.491 525.761V525.364C501.491 523.759 501.807 522.171 502.421 520.689C503.035 519.206 503.935 517.86 505.069 516.725C506.203 515.591 507.55 514.691 509.032 514.077C510.514 513.463 512.102 513.147 513.707 513.147L532.875 513.148L532.874 525.762Z" fill="#1B3647"/>
<path d="M552.574 276.449L548.341 268.084C548.341 268.084 532.572 272.035 531.139 281.176L552.574 276.449Z" fill="#0077FF"/>
<path d="M570.039 372.099L558.528 436.344L589.092 490.406L570.833 497.552L539.871 445.147L535.902 430.855L533.52 505.492L517.053 504.992L509.502 435.299L521.612 370.511L570.039 372.099Z" fill="#1B3647"/>
<path d="M515.06 383.689C514.702 382.098 513.678 333.529 513.678 333.529C513.678 333.529 530.608 277.942 530.763 277.485L530.823 277.307L543.677 272.487C543.857 272.404 548.139 270.496 551.644 272.087C552.543 272.524 553.335 273.152 553.966 273.928C554.597 274.703 555.051 275.607 555.296 276.576C556.754 277.662 567.261 289.433 567.261 305.398L567.657 343.073L576.465 383.917L576.076 384C575.835 384.051 565.099 387.286 548.188 387.286C538.792 387.286 515.06 383.689 515.06 383.689Z" fill="#8E87DF"/>
<path d="M535.194 265.45C544.788 265.45 552.566 257.671 552.566 248.075C552.566 238.479 544.788 230.7 535.194 230.7C525.599 230.7 517.821 238.479 517.821 248.075C517.821 257.671 525.599 265.45 535.194 265.45Z" fill="#FFB8B8"/>
<path opacity="0.2" d="M559.944 324.622L529.551 367.035L525.062 347.228L559.944 324.622Z" fill="black"/>
<path d="M506.002 367.949C507.091 367.906 508.157 367.624 509.125 367.124C510.094 366.624 510.941 365.918 511.607 365.055C512.273 364.192 512.742 363.194 512.98 362.13C513.219 361.067 513.221 359.964 512.987 358.899L535.57 345.044L523.1 339.209L503.567 353.261C501.805 353.772 500.291 354.912 499.313 356.465C498.335 358.018 497.961 359.876 498.261 361.687C498.561 363.497 499.515 365.135 500.942 366.289C502.368 367.443 504.169 368.034 506.002 367.949Z" fill="#FFB8B8"/>
<path d="M521.612 339.545L513.877 344.965L520.437 356.616L529.551 349.073L521.612 339.545Z" fill="#0077FF"/>
<path d="M517.562 339.886L535.756 318.795L528.785 289.704C528.065 286.697 528.463 283.531 529.906 280.797C531.348 278.062 533.736 275.947 536.624 274.844C539.512 273.742 542.703 273.729 545.6 274.807C548.497 275.885 550.902 277.981 552.368 280.703L552.526 280.997L558.949 324.198L526.674 357.285L517.562 339.886Z" fill="#8E87DF"/>
<path d="M549.991 263.161L535.572 263.678C534.693 263.71 532.307 254.223 531.995 252.255C531.748 250.973 531.044 249.826 530.013 249.026C528.982 248.226 527.695 247.83 526.393 247.909C525.314 248.011 522.592 245.995 519.783 243.606C514.451 239.072 514.728 230.557 520.586 226.726C520.746 226.621 520.903 226.525 521.057 226.439C524.752 224.37 529.075 223.676 533.309 223.623C537.148 223.575 541.095 224.058 544.477 225.875C550.539 229.133 553.766 236.252 554.049 243.129C554.333 250.006 552.128 256.731 549.627 263.144" fill="#1B3647"/>
<path d="M629.206 526H453.757C453.546 526 453.344 525.916 453.195 525.767C453.047 525.619 452.963 525.417 452.963 525.206C452.963 524.995 453.047 524.793 453.195 524.644C453.344 524.496 453.546 524.412 453.757 524.412H629.206C629.417 524.412 629.618 524.496 629.767 524.644C629.916 524.793 630 524.995 630 525.206C630 525.417 629.916 525.619 629.767 525.767C629.618 525.916 629.417 526 629.206 526Z" fill="#8E87DF"/>
</g>
<defs>
<clipPath id="clip0_199_204">
<rect width="630" height="526" fill="white"/>
</clipPath>
</defs>
</svg>
