<svg width="751" height="459" viewBox="0 0 751 459" fill="none" xmlns="http://www.w3.org/2000/svg">
<g clip-path="url(#clip0_199_251)">
<path d="M589.182 71.6941C589.182 71.6941 572.652 73.5586 571.583 99.1711C570.692 120.516 568.877 132.41 577.559 136.863C580.66 138.454 584.307 138.59 587.624 137.506L623.046 125.853C623.046 125.853 623.576 87.4377 611.311 78.0993C599.046 68.7608 589.182 71.6941 589.182 71.6941Z" fill="#36344E"/>
<path d="M608.708 130.562L590.78 136.461V110.639H607.046L608.708 130.562Z" fill="#FAAFB2"/>
<path d="M553.905 277.133C552.933 283.048 548.989 287.291 545.101 286.608C541.206 285.925 538.844 280.572 539.816 274.657C540.17 272.287 541.109 270.044 542.547 268.124L546.989 243.114L559.077 245.645L553.415 270.028C554.162 272.335 554.33 274.77 553.905 277.133Z" fill="#FAAFB2"/>
<path d="M594.95 443.433H578.162L568.419 353.665H594.379L594.95 443.433Z" fill="#FAAFB2"/>
<path d="M561.808 457.859C560.041 457.859 558.467 457.819 557.286 457.706C552.828 457.296 548.571 454.001 546.434 452.081C545.478 451.221 545.165 449.838 545.663 448.649C546.025 447.797 546.739 447.162 547.631 446.905L559.414 443.538L578.499 430.655L578.716 431.041C578.796 431.185 580.668 434.561 581.294 436.843C581.535 437.711 581.471 438.434 581.109 438.997C580.86 439.383 580.507 439.608 580.226 439.736C580.571 440.098 581.656 440.829 584.989 441.36C589.865 442.131 590.877 437.084 590.925 436.875L590.957 436.707L591.102 436.61C593.415 435.115 594.845 434.44 595.335 434.585C595.64 434.673 596.154 434.834 597.535 448.577C597.672 449.011 598.644 452.169 597.985 455.199C597.27 458.494 582.901 457.361 580.025 457.095C579.945 457.103 569.19 457.867 561.816 457.867H561.808V457.859Z" fill="#36344E"/>
<path d="M632.886 443.433H616.091L606.355 353.665H632.308L632.886 443.433Z" fill="#FAAFB2"/>
<path d="M599.744 457.859C597.977 457.859 596.403 457.819 595.222 457.706C590.764 457.296 586.507 454.001 584.371 452.081C583.415 451.221 583.102 449.838 583.6 448.649C583.961 447.797 584.676 447.162 585.568 446.905L597.351 443.538L616.436 430.655L616.652 431.041C616.733 431.185 618.604 434.561 619.231 436.843C619.472 437.711 619.407 438.434 619.046 438.997C618.797 439.383 618.444 439.608 618.162 439.736C618.508 440.098 619.592 440.829 622.926 441.36C627.801 442.131 628.813 437.084 628.861 436.875L628.894 436.707L629.038 436.61C631.359 435.115 632.781 434.44 633.271 434.585C633.576 434.673 634.09 434.834 635.472 448.577C635.609 449.011 636.58 452.169 635.922 455.199C635.207 458.494 620.837 457.361 617.962 457.095C617.881 457.103 607.126 457.867 599.752 457.867H599.744V457.859Z" fill="#36344E"/>
<path d="M637.713 222.95H556.129L585.455 126.383H617.985L637.713 222.95Z" fill="#8E87DF"/>
<path d="M590.588 126.391C590.588 126.391 570.323 125.861 568.194 131.197C566.066 136.533 540.997 263.519 540.997 263.519H557.527L590.588 126.399V126.391Z" fill="#8E87DF"/>
<path d="M592.998 117.784C602.863 117.784 610.861 109.782 610.861 99.9105C610.861 90.0394 602.863 82.0372 592.998 82.0372C583.132 82.0372 575.134 90.0394 575.134 99.9105C575.134 109.782 583.132 117.784 592.998 117.784Z" fill="#FAAFB2"/>
<path d="M588.113 78.3645C588.113 78.3645 578.282 118.306 589.214 136.975L573.816 133.704C573.816 133.704 567.848 89.9934 579.848 82.0452L588.113 78.3645Z" fill="#36344E"/>
<path d="M620.757 222.95H567.214L537.92 343.249C537.382 348.329 540.603 353.07 545.534 354.396C561.607 358.704 600.178 364.803 658.548 347.806C664.163 346.175 667.352 340.244 665.593 334.658L620.757 222.95Z" fill="#36344E"/>
<path d="M599.11 126.383L615.761 125.652C622.974 126.198 629.496 130.12 633.36 136.236C645.127 154.848 667.144 194.075 647.489 199.451C621.577 206.532 609.022 167.112 609.022 167.112L599.11 126.383Z" fill="#8E87DF"/>
<path d="M593.399 138.068C589.977 133.15 589.857 127.355 593.118 125.129C596.387 122.903 601.809 125.097 605.23 130.015C606.628 131.96 607.512 134.227 607.817 136.605L622.042 157.645L611.608 164.259L598.692 142.818C596.548 141.684 594.732 140.053 593.399 138.068Z" fill="#FAAFB2"/>
<path d="M601.816 155.081L613.568 144.264L636.805 165.907L615.198 180.686L601.816 155.081Z" fill="#8E87DF"/>
<path d="M26.0325 101.767H394.922C409.3 101.767 420.955 113.428 420.955 127.813C420.955 142.199 409.3 153.86 394.922 153.86H26.0325C11.6548 153.86 0 142.199 0 127.813C0 113.428 11.6548 101.767 26.0325 101.767Z" fill="#0077FF"/>
<path d="M163.304 458.044C163.304 458.574 163.729 459 164.26 459H750.044C750.574 459 751 458.574 751 458.044C751 457.513 750.574 457.087 750.044 457.087H164.26C163.729 457.087 163.304 457.513 163.304 458.044Z" fill="#1B3647"/>
<path d="M341.066 75.5034H417.654C419.485 75.5034 420.963 76.9821 420.963 78.8064C420.963 80.6307 419.485 82.1095 417.654 82.1095H341.066C339.235 82.1095 337.757 80.6307 337.757 78.8064C337.757 76.9821 339.235 75.5034 341.066 75.5034Z" fill="#8E87DF"/>
<path d="M3.30929 0H79.8969C81.7282 0 83.2062 1.47873 83.2062 3.30303C83.2062 5.12732 81.7282 6.60605 79.8969 6.60605H3.30929C1.47794 6.61409 0 5.13536 0 3.30303C0 1.47873 1.47794 0 3.30929 0Z" fill="#8E87DF"/>
<path d="M3.30929 28.8593H228.108C229.939 28.8593 231.417 30.338 231.417 32.1703C231.417 33.9946 229.939 35.4733 228.108 35.4733H3.30929C1.47794 35.4733 0 33.9946 0 32.1703C0 30.346 1.47794 28.8593 3.30929 28.8593Z" fill="#8E87DF"/>
<path d="M187.771 209.658C187.771 226.985 201.811 241.032 219.128 241.032C224.374 241.032 229.313 239.747 233.651 237.472L264.037 285.692C265.9 288.641 269.876 289.38 272.671 287.291C275.282 285.338 275.844 281.657 273.941 279.005L240.518 232.594C246.647 226.864 250.486 218.707 250.486 209.658C250.486 192.331 236.446 178.283 219.128 178.283C201.811 178.283 187.771 192.331 187.771 209.658ZM192.076 209.658C192.076 194.71 204.188 182.583 219.136 182.583C234.085 182.583 246.197 194.702 246.197 209.658C246.197 224.606 234.085 236.733 219.136 236.733C204.196 236.733 192.076 224.614 192.076 209.658Z" fill="#484662"/>
<g clip-path="url(#clip1_199_251)">
<path d="M403.488 341.865L471.23 343.291C471.23 343.291 483.409 363.257 474.11 391.424L475.152 399.268L470.874 411.39L468.734 448.47L470.874 454.175L469.447 464.871C469.447 464.871 475.152 535.466 460.89 571.12L443.777 570.407L437.359 477.383L440.924 470.575L440.211 467.723L431.654 424.938L423.097 447.044V459.326L415.253 468.436C415.253 468.436 418.106 552.58 410.262 569.693H391.101L383.878 455.601L391.009 389.284L389.583 385.006L391.722 382.867L390.296 375.736L403.488 341.865Z" fill="#2F2E41"/>
<path d="M432.367 211.728L453.046 206.736L458.751 220.285C458.751 220.285 488.265 235.972 489.692 257.365C489.692 257.365 493.692 274.479 490.126 282.323C486.561 290.166 471.586 315.124 471.586 315.124C471.586 315.124 485.135 358.622 481.569 360.761C478.004 362.9 393.147 358.622 393.147 354.344C393.147 350.065 407.27 305.141 407.27 305.141L410.261 228.128L429.514 220.998L432.367 211.728Z" fill="#3F3D56"/>
<path d="M487.496 387.263C483.168 385.082 481.427 379.805 483.608 375.477C483.828 375.041 484.086 374.639 484.364 374.258L472.857 295.365L488.788 295.874L497.121 372.743C500.142 375.305 501.143 379.682 499.282 383.375C497.101 387.703 491.825 389.444 487.496 387.263Z" fill="#FFB6B6"/>
<path d="M336.338 350.028C334.596 345.505 336.849 340.426 341.372 338.684C341.827 338.508 342.288 338.384 342.751 338.288L387.203 272.103L398.665 283.178L353.22 345.733C353.738 349.659 351.541 353.575 347.682 355.061C343.16 356.804 338.081 354.55 336.338 350.028Z" fill="#FFB6B6"/>
<path d="M458.468 275.466C453.967 260.002 461.442 244.225 477.547 244.302C482.202 244.324 485.819 245.674 486.821 249.413C490.329 262.5 492.242 282.254 492.242 282.254L496.404 303.286L493.883 307.653L499.138 321.748L496.589 328.416L496.038 362.468L483.202 361.755L469.06 335.796L463.652 332.58C463.652 332.58 467.994 290.608 459.357 278.523L458.468 275.466Z" fill="#3F3D56"/>
<path d="M400.975 237.41C408.481 223.16 427.696 219.785 439.227 231.028C442.56 234.278 444.222 237.762 442.346 241.148C435.778 252.998 420.553 265.756 420.553 265.756L401.804 295.898L396.957 297.288L390.945 311.076L378.061 326.224L360.997 335.223L351.014 325.24L353.134 312.407L378.824 278.177C378.824 278.177 397.308 254.92 399.491 240.227L400.975 237.41Z" fill="#3F3D56"/>
<path d="M436.297 207.56C436.769 207.617 437.24 207.659 437.708 207.681C439.166 207.761 440.605 207.677 441.993 207.442C446.209 206.766 450.039 204.77 452.995 201.841C456.119 198.751 458.258 194.627 458.836 189.932C460.19 178.849 452.298 168.753 441.215 167.399C430.292 166.056 420.334 173.697 418.744 184.525C418.719 184.693 418.694 184.853 418.676 185.02C417.322 196.11 425.206 206.199 436.297 207.56Z" fill="#FFB6B6"/>
<path d="M414.187 183.783C417.058 185.203 421.749 180.74 423.545 183.308C423.837 182.753 424.159 182.216 424.478 181.708C424.766 181.254 425.178 180.285 425.655 180.119C425.051 181.575 425.185 183.547 425.811 185.237C428.643 186.295 432.35 183.953 434.971 181.182C439.087 176.838 445.807 187.978 444.218 193.743C446.24 191.273 450.629 192.666 452.116 195.49C453.602 198.306 451.091 200.563 450.553 203.705L454.608 203.19C457.165 200.699 456.987 196.501 459.093 193.613C462.611 188.781 463.974 183.851 461.329 178.864C458.983 174.455 458.764 168.748 454.46 166.206C456.341 165.286 449.653 166.723 451.439 163.726C453.234 160.736 443.67 160.374 443.047 161.975C440.314 158.705 437.557 156.548 434.196 159.169C430.894 161.747 431.236 164.458 427.359 164.215C425.539 164.102 425.739 167.494 424.657 168.973C423.582 170.444 419.402 171.389 419.198 171.231C418.094 170.368 414.338 177.721 414.338 177.721C414.338 177.721 411.292 182.345 414.187 183.783Z" fill="#2F2E41"/>
<path d="M161.155 312.13C229.086 312.13 284.155 367.199 284.155 435.13C284.155 503.061 229.086 558.13 161.155 558.13C93.2238 558.13 -0.790102 490.779 38.1548 435.13C77.0998 379.482 93.2238 312.13 161.155 312.13Z" fill="#F2F2F2"/>
<path d="M325.782 317.982C324.679 317.982 323.782 318.879 323.782 319.982V383.982C323.782 385.085 324.679 385.982 325.782 385.982C326.885 385.982 327.782 385.085 327.782 383.982V319.982C327.782 318.879 326.885 317.982 325.782 317.982Z" fill="#3F3D56"/>
<path d="M169.155 206.982C168.052 206.982 167.155 207.879 167.155 208.982V239.982C167.155 241.085 168.052 241.982 169.155 241.982C170.258 241.982 171.155 241.085 171.155 239.982V208.982C171.155 207.879 170.258 206.982 169.155 206.982Z" fill="#3F3D56"/>
<path d="M107.376 426.839H38.1553V424.839H107.376C113.389 424.839 118.281 419.947 118.281 413.933V367.13H120.281V413.933C120.281 421.049 114.492 426.839 107.376 426.839Z" fill="#536DFE"/>
<path d="M339.343 413.466H255.251C250.713 413.466 247.021 409.774 247.021 405.236V322.17C247.021 317.632 250.713 313.94 255.251 313.94H339.343C343.881 313.94 347.573 317.632 347.573 322.17V405.236C347.573 409.774 343.881 413.466 339.343 413.466Z" fill="#E6E6E6"/>
<path d="M270.912 316.392C259.072 316.392 249.474 325.991 249.474 337.831V403.474C249.474 407.638 252.85 411.014 257.014 411.014H308.434C328.696 411.014 345.121 394.588 345.121 374.327V323.932C345.121 319.768 341.745 316.392 337.581 316.392L270.912 316.392Z" fill="white"/>
<path d="M319.819 340.532H274.599C273.736 340.532 273.034 339.83 273.034 338.967C273.034 338.104 273.736 337.403 274.599 337.403H319.819C320.682 337.403 321.384 338.104 321.384 338.967C321.384 339.83 320.682 340.532 319.819 340.532Z" fill="#E6E6E6"/>
<path d="M319.819 373.895H274.599C273.736 373.895 273.034 373.193 273.034 372.331C273.034 371.468 273.736 370.766 274.599 370.766H319.819C320.682 370.766 321.384 371.468 321.384 372.331C321.384 373.193 320.682 373.895 319.819 373.895Z" fill="#E6E6E6"/>
<path d="M338.182 357.224H256.236C255.373 357.224 254.671 356.522 254.671 355.66C254.671 354.797 255.373 354.095 256.236 354.095H338.182C339.045 354.095 339.747 354.797 339.747 355.66C339.747 356.522 339.045 357.224 338.182 357.224Z" fill="#E6E6E6"/>
<path d="M339.02 387.461H309.416C308.554 387.461 307.852 386.759 307.852 385.896C307.852 385.033 308.554 384.332 309.416 384.332H339.02C339.883 384.332 340.584 385.033 340.584 385.896C340.584 386.759 339.883 387.461 339.02 387.461Z" fill="#E6E6E6"/>
<path d="M116.04 366.626H66.6573C63.9923 366.626 61.8242 364.458 61.8242 361.793V313.012C61.8242 310.347 63.9923 308.179 66.6572 308.179H116.04C118.705 308.179 120.873 310.347 120.873 313.012V361.793C120.873 364.458 118.705 366.626 116.04 366.626Z" fill="#E6E6E6"/>
<path d="M75.8543 309.619C68.9012 309.619 63.2646 315.256 63.2646 322.209V360.758C63.2646 363.203 65.2471 365.186 67.6926 365.186H97.8888C109.788 365.186 119.433 355.54 119.433 343.641V314.047C119.433 311.602 117.451 309.619 115.005 309.619L75.8543 309.619Z" fill="white"/>
<path d="M104.575 323.795H78.0195C77.5128 323.795 77.1006 323.383 77.1006 322.876C77.1006 322.37 77.5128 321.958 78.0195 321.958H104.575C105.082 321.958 105.494 322.37 105.494 322.876C105.494 323.383 105.082 323.795 104.575 323.795Z" fill="#E6E6E6"/>
<path d="M104.575 343.388H78.0195C77.5128 343.388 77.1006 342.976 77.1006 342.469C77.1006 341.962 77.5128 341.55 78.0195 341.55H104.575C105.082 341.55 105.494 341.962 105.494 342.469C105.494 342.976 105.082 343.388 104.575 343.388Z" fill="#E6E6E6"/>
<path d="M115.358 333.598H67.2353C66.7287 333.598 66.3164 333.186 66.3164 332.679C66.3164 332.172 66.7286 331.76 67.2353 331.76H115.358C115.865 331.76 116.277 332.172 116.277 332.679C116.277 333.186 115.865 333.598 115.358 333.598Z" fill="#E6E6E6"/>
<path d="M115.849 351.354H98.4648C97.9581 351.354 97.5459 350.942 97.5459 350.435C97.5459 349.929 97.9581 349.517 98.4648 349.517H115.849C116.356 349.517 116.768 349.929 116.768 350.435C116.768 350.942 116.356 351.354 115.849 351.354Z" fill="#E6E6E6"/>
<path d="M260.155 428.13C265.678 428.13 270.155 423.653 270.155 418.13C270.155 412.608 265.678 408.13 260.155 408.13C254.632 408.13 250.155 412.608 250.155 418.13C250.155 423.653 254.632 428.13 260.155 428.13Z" fill="#536DFE"/>
<path d="M119.155 377.13C124.678 377.13 129.155 372.653 129.155 367.13C129.155 361.608 124.678 357.13 119.155 357.13C113.632 357.13 109.155 361.608 109.155 367.13C109.155 372.653 113.632 377.13 119.155 377.13Z" fill="#536DFE"/>
<path d="M188.756 236.853C195.64 236.853 201.22 231.39 201.22 224.652C201.22 217.914 195.64 212.451 188.756 212.451C181.873 212.451 176.293 217.914 176.293 224.652C176.293 231.39 181.873 236.853 188.756 236.853Z" fill="#F2F2F2"/>
<path d="M288.669 220.478H221.584C219.283 220.478 217.41 218.606 217.41 216.304C217.41 214.003 219.283 212.13 221.584 212.13H288.669C290.97 212.13 292.843 214.003 292.843 216.304C292.843 218.606 290.97 220.478 288.669 220.478Z" fill="#F2F2F2"/>
<path d="M341.022 234.605H221.584C219.283 234.605 217.41 232.733 217.41 230.431C217.41 228.13 219.283 226.257 221.584 226.257H341.022C343.324 226.257 345.196 228.13 345.196 230.431C345.196 232.733 343.324 234.605 341.022 234.605Z" fill="#F2F2F2"/>
<path d="M8.35902 288.13C12.8138 288.13 16.4251 284.595 16.4251 280.234C16.4251 275.873 12.8138 272.338 8.35902 272.338C3.90426 272.338 0.292969 275.873 0.292969 280.234C0.292969 284.595 3.90426 288.13 8.35902 288.13Z" fill="#F2F2F2"/>
<path d="M73.021 277.533H29.6046C28.1152 277.533 26.9033 276.321 26.9033 274.832C26.9033 273.342 28.1152 272.13 29.6046 272.13H73.021C74.5105 272.13 75.7223 273.342 75.7223 274.832C75.7223 276.321 74.5105 277.533 73.021 277.533Z" fill="#F2F2F2"/>
<path d="M106.903 286.676H29.6046C28.1152 286.676 26.9033 285.464 26.9033 283.974C26.9033 282.485 28.1152 281.273 29.6046 281.273H106.903C108.393 281.273 109.605 282.485 109.605 283.974C109.605 285.464 108.393 286.676 106.903 286.676Z" fill="#F2F2F2"/>
<path d="M153.405 313.97H151.405V408.97H153.405V313.97Z" fill="#E6E6E6"/>
<path d="M152.405 414.97C155.719 414.97 158.405 412.284 158.405 408.97C158.405 405.657 155.719 402.97 152.405 402.97C149.092 402.97 146.405 405.657 146.405 408.97C146.405 412.284 149.092 414.97 152.405 414.97Z" fill="#E6E6E6"/>
<path d="M81.4053 401.97C84.719 401.97 87.4053 399.284 87.4053 395.97C87.4053 392.657 84.719 389.97 81.4053 389.97C78.0916 389.97 75.4053 392.657 75.4053 395.97C75.4053 399.284 78.0916 401.97 81.4053 401.97Z" fill="#E6E6E6"/>
<path d="M79.1878 395.98L46.375 396.973L46.4355 398.973L79.2484 397.98L79.1878 395.98Z" fill="#E6E6E6"/>
<path d="M78.9424 467.486C82.2561 467.486 84.9424 464.799 84.9424 461.486C84.9424 458.172 82.2561 455.486 78.9424 455.486C75.6287 455.486 72.9424 458.172 72.9424 461.486C72.9424 464.799 75.6287 467.486 78.9424 467.486Z" fill="#E6E6E6"/>
<path d="M279.405 438.655H40.4229V440.655H279.405V438.655Z" fill="#E6E6E6"/>
</g>
</g>
<defs>
<clipPath id="clip0_199_251">
<rect width="751" height="459" fill="white"/>
</clipPath>
<clipPath id="clip1_199_251">
<rect width="564.81" height="449.941" fill="white" transform="translate(-35 158)"/>
</clipPath>
</defs>
</svg>
