<svg width="52" height="52" viewBox="0 0 52 52" fill="none" xmlns="http://www.w3.org/2000/svg">
<path d="M25.9997 24.9166C24.5631 24.9166 23.1853 24.346 22.1695 23.3301C21.1537 22.3143 20.583 20.9366 20.583 19.5C20.583 18.0634 21.1537 16.6856 22.1695 15.6698C23.1853 14.654 24.5631 14.0833 25.9997 14.0833C27.4363 14.0833 28.814 14.654 29.8298 15.6698C30.8457 16.6856 31.4163 18.0634 31.4163 19.5C31.4163 20.2113 31.2762 20.9157 31.004 21.5728C30.7318 22.23 30.3328 22.8272 29.8298 23.3301C29.3269 23.8331 28.7297 24.2321 28.0725 24.5043C27.4154 24.7765 26.711 24.9166 25.9997 24.9166ZM25.9997 4.33331C21.9772 4.33331 18.1195 5.93122 15.2752 8.77553C12.4309 11.6198 10.833 15.4775 10.833 19.5C10.833 30.875 25.9997 47.6666 25.9997 47.6666C25.9997 47.6666 41.1663 30.875 41.1663 19.5C41.1663 15.4775 39.5684 11.6198 36.7241 8.77553C33.8798 5.93122 30.0221 4.33331 25.9997 4.33331Z" fill="white"/>
</svg>
