<svg width="1920" height="876" viewBox="0 0 1920 876" fill="none" xmlns="http://www.w3.org/2000/svg">
<path d="M280.227 517.229C280.227 517.229 499.818 500.695 595.729 575.818C691.64 650.942 732.513 852.259 970.825 867.452C1234.47 884.299 1278.15 645.669 1427.01 598.935C1569.47 554.292 1716.52 765.093 1922.45 774.796V22.9367L42.1333 19.8169C42.1333 19.8169 107 171.905 309.368 308.393C430.552 390.037 323.003 468.031 280.227 517.229Z" fill="#9DCEFF"/>
<mask id="mask0_16_5795" style="mask-type:luminance" maskUnits="userSpaceOnUse" x="194" y="19" width="1729" height="775">
<path d="M280.227 517.229C280.227 517.229 462.533 502.629 557.695 538.319C684.059 585.708 759.471 793.077 996.94 793.077C1234.41 793.077 1337.84 550.174 1512.28 545.182C1632.28 541.844 1876.65 614.128 1922.45 511.302V19.8169H203.067C203.067 19.8169 144.628 157.304 324.75 278.974C504.873 400.644 279.416 498.417 279.416 498.417L280.227 517.229Z" fill="white"/>
</mask>
<g mask="url(#mask0_16_5795)">
<path d="M186.344 -100.044V467.313H731.515L747.24 -42.8276L186.344 -100.044Z" fill="url(#paint0_linear_16_5795)"/>
<path d="M1930 -234.411L747.24 -42.8275L731.515 467.313L1930 737.546V-234.411Z" fill="url(#paint1_linear_16_5795)"/>
<path d="M186.344 467.313H731.515L1930 737.546V869.511H186.344V467.313Z" fill="url(#paint2_linear_16_5795)"/>
<path d="M1930 788.148L731.515 475.05L186.344 476.735V457.86L731.515 467.313L1930 737.546V788.148Z" fill="url(#paint3_linear_16_5795)"/>
<path d="M1930 737.546L731.515 467.313L186.344 457.86V452.027L731.671 462.696L1930 726.159V737.546Z" fill="#E88B57"/>
<g style="mix-blend-mode:multiply" opacity="0.3">
<path d="M667.441 474.551L666.995 475.915L1874.49 870.077L1874.94 868.713L667.441 474.551Z" fill="#A33746"/>
<path d="M574.59 474.866L574.051 476.23L1570.83 870.237L1571.37 868.873L574.59 474.866Z" fill="#A33746"/>
<path d="M500.447 475.042L499.839 476.376L1362.97 870.051L1363.58 868.717L500.447 475.042Z" fill="#A33746"/>
<path d="M452.653 475.28L451.913 476.547L1126.11 870.157L1126.85 868.891L452.653 475.28Z" fill="#A33746"/>
<path d="M403.334 475.213L402.442 476.377L916.782 870.146L917.674 868.982L403.334 475.213Z" fill="#A33746"/>
<path d="M731.016 870.01L339.852 476.766L340.881 475.737L732.046 868.981L731.016 870.01Z" fill="#A33746"/>
<path d="M281.402 475.315L280.226 476.192L573.739 869.927L574.915 869.051L281.402 475.315Z" fill="#A33746"/>
<path d="M218.967 476.323L217.653 476.975L412.349 869.835L413.663 869.184L218.967 476.323Z" fill="#A33746"/>
<path d="M187.073 536.57L185.663 536.97L280.133 869.676L281.543 869.276L187.073 536.57Z" fill="#A33746"/>
<path d="M336.232 713.836H236.827V715.302H336.232V713.836Z" fill="#A33746"/>
<path d="M577.415 713.836H458.82V715.302H577.415V713.836Z" fill="#A33746"/>
<path d="M534.482 575.818H440.1V577.284H534.482V575.818Z" fill="#A33746"/>
<path d="M1168.33 779.818H974.102V781.285H1168.33V779.818Z" fill="#A33746"/>
<path d="M1129.04 625.297H955.038V626.764H1129.04V625.297Z" fill="#A33746"/>
</g>
<g style="mix-blend-mode:soft-light" opacity="0.5">
<path d="M452.237 578.563L747.209 869.511H908.985L537.602 578.563H452.237Z" fill="#BC9C8B"/>
</g>
<g style="mix-blend-mode:soft-light" opacity="0.5">
<path d="M456.075 475.518L974.102 773.61L1157.19 775.482L503.001 477.047L456.075 475.518Z" fill="#BC9C8B"/>
</g>
<g style="mix-blend-mode:multiply" opacity="0.2">
<path d="M1175.78 641.27H1085.02L1206.39 698.799L1024.4 626.92H965.677L1598.71 869.511H1866.54L1175.78 641.27Z" fill="#8E0A2F"/>
</g>
<g style="mix-blend-mode:multiply" opacity="0.2">
<path d="M345.499 562.559H375.233L448.774 645.295L442.315 632.847H464.374L510.395 689.346L550.239 687.255L574.294 711.465L457.572 712.9L345.499 562.559Z" fill="#8E0A2F"/>
</g>
<g style="mix-blend-mode:multiply" opacity="0.2">
<path d="M699.909 703.166L555.792 592.821H588.117L627.866 622.989L568.148 571.295L609.957 567.988L858.191 712.9L822.778 714.553L667.304 622.989L774.167 698.393L699.909 703.166Z" fill="#8E0A2F"/>
</g>
<g style="mix-blend-mode:multiply" opacity="0.2">
<path d="M280.789 869.511L247.092 750.742H280.789L297.387 780.567L288.651 714.553H332.613L407.214 869.511H280.789Z" fill="#8E0A2F"/>
</g>
<path d="M462.908 326.114L466.777 324.928L521.534 323.711V325.521L462.908 326.114Z" fill="url(#paint4_linear_16_5795)"/>
<path d="M250.274 476.984L261.444 163.325C285.718 48.113 480.317 25.6197 520.13 179.454L523 477.109L250.274 476.984Z" fill="url(#paint5_linear_16_5795)"/>
<path d="M466.776 183.635C466.776 183.635 455.669 57.2538 336.232 79.716C335.109 78.3433 475.294 26.8675 520.13 179.548L521.534 323.68L523 477.047L466.839 462.727L466.776 183.635Z" fill="#842B31"/>
<path d="M253.207 394.405L466.776 400.239V462.727L523 477.047L250.274 476.984L253.207 394.405Z" fill="url(#paint6_linear_16_5795)"/>
<path d="M521.627 336.159H735.54L731.671 462.696L522.813 458.609L521.627 336.159Z" fill="url(#paint7_linear_16_5795)"/>
<path d="M521.534 324.928L521.627 336.159H735.54L741.874 326.114L521.534 324.928Z" fill="url(#paint8_linear_16_5795)"/>
<path d="M535.949 450.279H715.26L717.693 348.576H535.949V450.279Z" fill="#CC6340"/>
<path d="M715.26 450.28L708.583 445.07L541.627 447.035L535.949 450.28H715.26Z" fill="#E88B57"/>
<path d="M717.693 348.576L713.606 350.822L708.583 445.069L715.259 450.279L717.693 348.576Z" fill="#963531"/>
<path d="M535.949 348.576L540.161 351.914L713.606 350.822L717.693 348.576H535.949Z" fill="#842B31"/>
<path d="M535.949 450.279L541.627 447.035L540.161 351.914L535.949 348.576V450.279Z" fill="#963531"/>
<path d="M255.485 330.544H186.344V452.026H251.179L255.485 330.544Z" fill="url(#paint9_linear_16_5795)"/>
<path d="M255.485 330.544L259.978 318.876H186.344V330.544H255.485Z" fill="url(#paint10_linear_16_5795)"/>
<path d="M259.978 318.876L257.357 317.035L186.344 315.943V318.876H259.978Z" fill="#E88B57"/>
<path d="M186.375 349.044H238.917L235.516 439.766H185.657L186.375 349.044Z" fill="#CC6340"/>
<path d="M235.516 439.766L230.68 435.71H186.344L185.657 439.766H235.516Z" fill="#E88B57"/>
<path d="M238.917 349.044L235.516 351.321L230.68 435.71L235.516 439.766L238.917 349.044Z" fill="#963531"/>
<path d="M186.375 349.044V350.822L235.516 351.321L238.917 349.044H186.375Z" fill="#842B31"/>
<path d="M521.628 336.159H466.777L462.908 326.114L521.534 324.928L521.628 336.159Z" fill="#7A2B31"/>
<path d="M521.534 323.711H741.874V326.114L521.534 325.521V323.711Z" fill="#E88B57"/>
<path d="M521.534 323.68L466.808 324.866V183.635C466.808 183.635 455.669 57.2538 336.232 79.716C335.109 78.3433 475.294 26.8675 520.13 179.548L521.534 323.68Z" fill="#B34240"/>
<g style="mix-blend-mode:multiply" opacity="0.5">
<path d="M185.657 746.343L1228.29 760.632L1029.58 661.736L886.115 627.855L815.04 598.779L796.631 591.074L999.53 594.786L680.627 477.359L1930 800.253V869.511H186.344L185.657 746.343Z" fill="#D18C90"/>
</g>
<path d="M708.582 452.026L709.862 351.727L707.272 345.019L703.809 455.24L708.582 452.026Z" fill="#722631"/>
<path d="M1930 420.268L775.071 323.711V-47.32L1930 -234.411V420.268Z" fill="#842B31"/>
<path d="M685.899 475.175L701.032 -47.9128L781.592 -47.2888L775.071 494.361L685.899 475.175Z" fill="#722631"/>
<path d="M1930 439.766L690.268 323.711L685.899 475.175L1930 788.148V439.766Z" fill="url(#paint11_linear_16_5795)"/>
<path d="M1930 439.766L690.268 323.711H775.071L1930 420.268V439.766Z" fill="url(#paint12_linear_16_5795)"/>
<path d="M690.268 323.711L701.032 -47.9128L705.806 -50.5334L698.037 324.429L690.268 323.711Z" fill="url(#paint13_linear_16_5795)"/>
<path d="M693.45 207.002L1930 193.181V167.755L693.825 200.669L693.45 207.002Z" fill="url(#paint14_linear_16_5795)"/>
<path d="M698.13 83.2726L1930 -19.6478V-35.6522L697.381 77.6882L698.13 83.2726Z" fill="url(#paint15_linear_16_5795)"/>
<g style="mix-blend-mode:multiply" opacity="0.5">
<path d="M1502.95 179.548L1499.52 194.148H1511.35V179.735L1502.95 179.548Z" fill="#A77A9F"/>
</g>
<g style="mix-blend-mode:multiply" opacity="0.5">
<path d="M1501.89 381.146L1496.81 399.428H1512.03L1512 381.739L1501.89 381.146Z" fill="#A77A9F"/>
</g>
<path d="M1581.49 407.133L1573.03 -164.498L1530.91 -158.289L1535.78 402.859L1581.49 407.133Z" fill="#843031"/>
<path d="M1581.49 407.133L1745.04 404.825V-124.44L1573.41 -139.165L1581.49 407.133Z" fill="#722631"/>
<path d="M1587.82 176.865V193.181H1930V167.755L1587.82 176.865Z" fill="#933F39"/>
<g style="mix-blend-mode:multiply" opacity="0.5">
<path d="M1587.82 11.5808L1745.04 40.3761L1930 34.199V-8.04239L1587.82 11.5808Z" fill="#A77A9F"/>
</g>
<g style="mix-blend-mode:multiply" opacity="0.5">
<path d="M1587.82 193.181L1745.04 239.353L1930 241.6V193.181H1587.82Z" fill="#A77A9F"/>
</g>
<path d="M1556.18 424.854V668.412L1930 748.215V457.86L1556.18 424.854Z" fill="#792C31"/>
<path d="M1930 499.759L1587.82 462.696V641.676L1930 700.452V499.759Z" fill="#843031"/>
<path d="M1587.82 641.676L1571.38 656.963L1930 726.159V700.452L1587.82 641.676Z" fill="#C95946"/>
<path d="M1571.38 656.963L1567.48 443.447L1587.82 462.696V641.676L1571.38 656.963Z" fill="#722631"/>
<path d="M1567.48 443.447L1930 474.551V503.877L1587.82 462.696L1567.48 443.447Z" fill="#561A31"/>
<path d="M1930 457.86L1556.18 424.854L1567.48 443.447L1930 477.952V457.86Z" fill="#A04731"/>
<path d="M1537.99 659.802L1930 748.215V781.285L1549.54 692.434L1537.99 659.802Z" fill="#943A32"/>
<path d="M1930 800.253L1551.57 700.452L1549.54 692.434L1930 781.285V800.253Z" fill="#722631"/>
<path d="M686.149 466.533L680.627 475.737L1179.5 605.081V582.557L686.149 466.533Z" fill="#943A32"/>
<path d="M680.627 475.737V477.359L1178.62 611.851L1179.5 605.081L680.627 475.737Z" fill="#722631"/>
<path d="M705.806 340.652L1157.19 389.6V563.277L701.25 458.578L705.806 340.652Z" fill="#792C31"/>
<path d="M1154.07 405.106L709.862 351.727L708.583 452.027L1157.19 543.81L1154.07 405.106Z" fill="#843031"/>
<path d="M709.862 351.727L707.272 345.019L1157.19 395.497V406.041L709.862 351.727Z" fill="#561A31"/>
<path d="M708.582 452.027L703.809 455.24L1157.19 551.796V543.809L708.582 452.027Z" fill="#C95946"/>
<g style="mix-blend-mode:multiply" opacity="0.5">
<path d="M700.47 207.002L778.067 245.468L1157.19 248.401V201.823L700.47 207.002Z" fill="#A77A9F"/>
</g>
<path d="M700.47 207.002L775.071 223.224H1157.19V201.823L700.47 207.002Z" fill="#561A31"/>
<g style="mix-blend-mode:multiply" opacity="0.5">
<path d="M698.13 83.2726L779.596 120.304L1157.19 104.331V44.8997L698.13 83.2726Z" fill="#A77A9F"/>
</g>
<path d="M997.408 -63.4491L1011.2 -38.6783V48.7994L966.676 52.855V-59.2062L997.408 -63.4491Z" fill="#561A31"/>
<path d="M703.06 82.867L779.908 92.9438L1157.19 70.4192V44.8997L703.06 82.867Z" fill="#561A31"/>
<path d="M1537.99 672.374L1370.01 672.873L1365.48 -189.705L1530.91 -158.289L1537.99 672.374Z" fill="#722631"/>
<path d="M1299.37 668.412L1157.19 622.989V-146.06L1299.37 -188.208V668.412Z" fill="url(#paint16_linear_16_5795)"/>
<path d="M1157.19 622.989L1141.49 641.27L1293.63 700.296L1377.12 700.452L1549.54 692.434L1530.91 660.051L1370.01 668.412H1299.37L1157.19 622.989Z" fill="#EC7F46"/>
<path d="M1141.49 641.27V646.231L1293.63 711.496V700.296L1141.49 641.27Z" fill="#842B31"/>
<path d="M1370.01 668.412L1377.12 702.417L1549.54 692.434L1537.99 659.802L1370.01 668.412Z" fill="#842B31"/>
<path d="M1377.12 711.496L1551.57 700.452L1549.54 692.434L1377.12 702.417V711.496Z" fill="#561A31"/>
<path d="M1299.37 -188.208L1365.48 -189.705L1370.01 668.412H1299.37V-188.208Z" fill="#843031"/>
<path d="M1299.37 668.412L1293.63 700.296L1377.12 702.417L1370.01 668.412H1299.37Z" fill="#9B3431"/>
<path d="M1293.63 700.296V711.496H1377.12V702.417L1293.63 700.296Z" fill="#722631"/>
<path d="M1169.57 618.652L1293.63 655.434L1283.89 -118.45L1253.22 -164.498L1184.58 -142.441L1169.57 -93.8354V618.652Z" fill="#722631"/>
<path d="M1257.37 -158.289L1191.38 -137.824L1176.84 -93.7418L1179.5 616.344L1169.57 618.652V-93.8354L1184.58 -142.441L1253.22 -164.498L1257.37 -158.289Z" fill="#843031"/>
<path d="M1293.63 655.434V645.264L1179.5 616.344L1169.57 618.652L1293.63 655.434Z" fill="#C95946"/>
<path d="M1377.12 655.434L1525.33 647.947L1517.34 -98.8582L1494.09 -146.06L1401.83 -162.532L1377.12 -122.35V655.434Z" fill="#561A31"/>
<path d="M1377.12 649.07L1512.47 641.676L1511.16 -96.8928L1487.79 -142.441L1399.21 -158.289L1401.83 -162.532L1494.09 -146.06L1517.34 -98.8582L1525.33 647.947L1377.12 655.434V649.07Z" fill="#662631"/>
<path d="M1512.47 641.676L1525.33 647.947L1377.12 655.434V649.07L1512.47 641.676Z" fill="#9B3431"/>
<g style="mix-blend-mode:multiply" opacity="0.5">
<path d="M1416.09 621.585V-129.525L1487.79 -142.503L1399.21 -158.352L1377.12 -122.443V621.523L1416.09 621.585Z" fill="#A77A9F"/>
</g>
<path d="M1377.12 621.585L1416.09 621.678L1512.47 641.676L1377.12 649.07V621.585Z" fill="#9B3431"/>
<path d="M1511.35 179.735L1377.12 176.74V193.899L1511.35 194.148V179.735Z" fill="#722631"/>
<path d="M1512 381.739H1377.12V399.428H1512.03L1512 381.739Z" fill="#722631"/>
<path d="M1179.5 616.344H1293.13L1293.63 645.264L1179.5 616.344Z" fill="#C95946"/>
<g style="mix-blend-mode:multiply" opacity="0.5">
<path d="M1191.38 -137.824L1257.37 -86.504L1293.13 616.344L1283.89 -118.45L1257.37 -158.289L1191.38 -137.824Z" fill="#A77A9F"/>
</g>
<path d="M1287.61 176.74L1177.87 181.576L1177.94 194.148H1287.61V176.74Z" fill="#843031"/>
<path d="M1290.17 382.987L1178.62 381.739V395.497L1290.17 397.493V382.987Z" fill="#843031"/>
<g style="mix-blend-mode:multiply" opacity="0.5">
<path d="M1177.34 14.8566L1285.39 34.199V0.692932L1177.34 14.8566Z" fill="#A77A9F"/>
</g>
<path d="M1432.44 53.9469L1377.12 61.2159V176.74L1428.7 177.894L1432.44 53.9469Z" fill="#721839"/>
<g style="mix-blend-mode:multiply" opacity="0.5">
<path d="M1177.94 194.148L1288.29 231.617L1287.61 194.148H1177.94Z" fill="#A77A9F"/>
</g>
<g style="mix-blend-mode:multiply" opacity="0.5">
<path d="M1178.62 395.497L1290.98 445.069L1290.17 397.493L1178.62 395.497Z" fill="#A77A9F"/>
</g>
<g style="mix-blend-mode:multiply" opacity="0.5">
<path d="M1512.03 399.428L1377.12 450.279V399.428H1512.03Z" fill="#A77A9F"/>
</g>
<g style="mix-blend-mode:multiply" opacity="0.5">
<path d="M1511.35 194.148L1377.12 231.616V193.899L1511.35 194.148Z" fill="#A77A9F"/>
</g>
<g style="mix-blend-mode:multiply" opacity="0.5">
<path d="M1511.35 11.5808L1377.12 40.3761V2.84552L1511.35 11.5808Z" fill="#A77A9F"/>
</g>
<path d="M1512 381.739L1377.12 374.064V381.739H1512Z" fill="#9B3431"/>
<path d="M1511.35 179.735L1428.7 177.894L1432.44 53.9469L1511.35 57.3474V179.735Z" fill="#BF244F"/>
<path d="M1405.45 176.74L1432.44 68.9217L1418.96 61.216L1386.08 163.887L1405.45 176.74Z" fill="#BF244F"/>
<path d="M1377.12 239.353L1451.22 241.6L1455.37 378.525L1377.12 377.901V239.353Z" fill="#334A5C"/>
<path d="M1472.69 249.711L1451.75 258.883L1487.79 380.366L1510.44 371.88L1472.69 249.711Z" fill="#9A134F"/>
<path d="M1510.44 484.503H1432.44V645.264L1512.47 641.676L1510.44 484.503Z" fill="#9A134F"/>
<path d="M1377.12 497.575L1432.44 495.641V645.264L1377.12 649.07V497.575Z" fill="#B2404C"/>
<path d="M1408.35 377.901V240.289L1423.86 241.6V378.525L1408.35 377.901Z" fill="#A53139"/>
<path d="M1418.96 61.216H1377.12V167.755L1386.08 163.887L1418.96 61.216Z" fill="#90244F"/>
<path d="M1386.08 163.887H1377.12V176.74H1405.45L1386.08 163.887Z" fill="#6B1543"/>
<path d="M1451.75 258.883L1455.37 378.525L1487.79 380.366L1451.75 258.883Z" fill="#721839"/>
<path d="M1472.47 55.6628V178.862L1494.25 179.361L1493.84 56.5987L1472.47 55.6628Z" fill="#90244F"/>
<path d="M1432.44 495.641L1377.12 484.503V497.575L1432.44 495.641Z" fill="#9E2F4C"/>
<path d="M1510.44 484.503L1396.25 467.313H1377.12V484.503L1432.44 495.641V484.503H1510.44Z" fill="#B32968"/>
<path d="M1432.44 484.503L1377.12 474.551V484.503L1432.44 495.641V484.503Z" fill="#721839"/>
<path d="M1432.44 495.641V645.264L1437.78 485.096L1432.44 484.503V495.641Z" fill="#721839"/>
<path d="M1213.47 467.313L1291.19 462.852L1293.13 625.297H1214.78L1213.47 467.313Z" fill="#334A5C"/>
<path d="M1178.62 381.739L1179.5 245.468L1236.56 241.6L1242.24 382.425L1178.62 381.739Z" fill="#33636E"/>
<path d="M1236.56 241.6H1287.61L1290.17 382.986L1242.24 382.425L1236.56 241.6Z" fill="#334A5C"/>
<path d="M1257.37 382.425L1237.25 258.883L1252.88 251.583L1280.87 375.53L1257.37 382.425Z" fill="#33636E"/>
<path d="M1177.87 181.576L1178.62 43.1214L1259.06 34.1989L1257.37 177.894L1177.87 181.576Z" fill="#BF3B66"/>
<path d="M1259.06 34.1989H1285.39L1287.61 176.74L1257.37 177.894L1259.06 34.1989Z" fill="#90244F"/>
<path d="M1191.38 41.7175L1194.94 180.827L1217.19 179.735L1218.47 38.6914L1191.38 41.7175Z" fill="#33636E"/>
<path d="M1179.5 462.696L1213.47 467.313L1214.78 625.297L1179.5 616.344V462.696Z" fill="#33636E"/>
<path d="M1245.99 467.188L1214.6 601.244L1234.82 625.516L1254.1 543.809L1257.37 630.819L1293.63 645.264L1291.26 466.565L1245.99 467.188Z" fill="#DA722C"/>
<path d="M1234.82 625.516L1257.19 625.297L1254.1 543.81L1234.82 625.516Z" fill="#B5481B"/>
<path d="M1245.99 467.188L1257.37 481.477H1291.44L1291.26 466.565L1245.99 467.188Z" fill="#DA9261"/>
<path d="M1472.47 485.096V643.485L1512.47 641.676L1510.44 484.503L1472.47 485.096Z" fill="#B2404C"/>
<path d="M1179.5 462.696L1291.13 457.86L1291.19 462.852L1213.47 467.313L1179.5 462.696Z" fill="#456B7D"/>
<path d="M1291.13 458.734L1197.9 462.696L1214.6 465.597L1291.07 461.604L1291.13 458.734Z" fill="#DA9261"/>
<path d="M1179.5 245.468L1194.35 244.47L1197.9 381.739H1178.62L1179.5 245.468Z" fill="#DA722C"/>
<path d="M1179.34 270.925V293.419H1195.63L1195.03 270.925H1179.34Z" fill="#FF932C"/>
<path d="M1196.81 338.967L1240.43 337.282L1241.65 367.263H1197.53L1196.81 338.967Z" fill="#FF932C"/>
<path d="M1242.62 291.734L1244.52 303.558L1263.36 298.005L1261.18 288.333L1242.62 291.734Z" fill="#FF932C"/>
<path d="M1194.16 150.69L1194.69 170.313L1217.28 167.755V150.69H1194.16Z" fill="#FF932C"/>
<path d="M1218.47 63.8678L1259.06 59.8745L1258.59 78.8738L1218.06 82.5239L1218.47 63.8678Z" fill="#FF932C"/>
<path d="M1411.88 83.2726L1408.35 94.3165L1423.86 103.239L1426.79 91.5399L1411.88 83.2726Z" fill="#E35448"/>
<path d="M1429.29 158.302L1472.47 160.486V174.307L1428.7 170.313L1429.29 158.302Z" fill="#E35448"/>
<path d="M1494.28 76.9706H1472.47V86.6419H1494.28V76.9706Z" fill="#E35448"/>
<path d="M1479.46 352.288L1485.92 374.064L1507.73 363.176L1502.14 345.019L1479.46 352.288Z" fill="#E35448"/>
<path d="M1218.5 584.647L1221.8 570.452L1243.3 589.514L1239.62 605.081L1218.5 584.647Z" fill="#FF932C"/>
<path d="M1179.5 491.023V518.633L1213.97 525.715L1213.47 495.453L1179.5 491.023Z" fill="#FF932C"/>
<path d="M1257.19 501.911V520.255L1291.97 522.252L1291.73 502.473L1257.19 501.911Z" fill="#FF932C"/>
<path d="M1815.03 40.3761L1829 45.2429L1815.03 46.1476V40.3761Z" fill="#B5481B"/>
<g style="mix-blend-mode:multiply">
<path d="M1692.19 737.546L1602.11 -206.926L1554.37 -198.784L1512.03 -170.956L1537.99 693.089L1692.19 737.546Z" fill="#A77A9F"/>
</g>
<path d="M1834.03 44.8997L1895.12 49.3609V168.691L1834.03 170.313V44.8997Z" fill="#334A5C"/>
<path d="M1602.11 176.491V59.8745L1834.03 44.8997V170.313L1602.11 176.491Z" fill="#33636E"/>
<path d="M1895.12 168.691L1930 167.755V44.8997H1895.12V168.691Z" fill="#9A134F"/>
<path d="M1659.24 174.962V44.8997L1725.85 40.3761L1723.29 173.215L1659.24 174.962Z" fill="#9A134F"/>
<path d="M1725.85 40.3761L1783.08 43.1838V48.2066L1735.31 51.2952L1732.37 172.84L1723.29 173.215L1725.85 40.3761Z" fill="#721839"/>
<path d="M1798.49 171.249L1799.77 40.3761H1815.03L1816.3 170.844L1798.49 171.249Z" fill="#DA722C"/>
<path d="M1815.03 46.1476L1816.3 170.844L1822.01 170.313L1820.33 45.8044L1815.03 46.1476Z" fill="#B5481B"/>
<path d="M1850.28 61.216L1895.12 64.6165V168.691L1865.73 167.755L1850.28 61.216Z" fill="#B5481B"/>
<path d="M1865.73 167.755L1834.03 68.9217L1850.28 61.216L1886.66 159.519L1865.73 167.755Z" fill="#DA722C"/>
<path d="M1762.39 171.936L1758.9 49.7665H1762.36L1764.17 171.936H1762.39Z" fill="#334A5C"/>
<path d="M1692.19 174.057L1700.95 173.932V42.092H1692.19V174.057Z" fill="#721839"/>
<path d="M1636.49 57.6595L1638.58 175.523L1659.24 174.962V57.6595H1636.49Z" fill="#334A5C"/>
<path d="M1602.11 105.828L1637.31 103.239L1637.81 131.441H1602.11V105.828Z" fill="#FF932C"/>
<path d="M1857.65 142.548L1878.14 136.527L1883.01 149.692L1861.51 154.59L1857.65 142.548Z" fill="#FF932C"/>
<path d="M1799.49 70.8872H1815.03V51.2952L1799.64 52.7303L1799.49 70.8872Z" fill="#FF932C"/>
<path d="M1724.01 136.527H1700.96V160.985H1723.54L1724.01 136.527Z" fill="#FF932C"/>
<path d="M1930 57.3475H1895.12V72.8526H1930V57.3475Z" fill="#FF932C"/>
<path d="M919.469 117.59L957.503 120.366V194.616L919.469 195.646V117.59Z" fill="#334A5C"/>
<path d="M775.134 199.483V126.918L919.469 117.59V195.646L775.134 199.483Z" fill="#33636E"/>
<path d="M957.502 194.616L979.218 194.055V117.59H957.502V194.616Z" fill="#9A134F"/>
<path d="M810.671 198.547V117.59L852.137 114.782L850.546 197.455L810.671 198.547Z" fill="#9A134F"/>
<path d="M852.138 114.782L887.769 116.498V119.649L858.035 121.552L856.225 197.206L850.546 197.455L852.138 114.782Z" fill="#721839"/>
<path d="M897.348 196.239L898.159 114.782H907.644L908.424 195.989L897.348 196.239Z" fill="#DA722C"/>
<path d="M907.644 118.339L908.424 195.989L912.012 195.646L910.951 118.151L907.644 118.339Z" fill="#B5481B"/>
<path d="M929.609 127.729L957.502 129.85V194.616L939.406 195.49L929.609 127.729Z" fill="#B5481B"/>
<path d="M939.406 195.49L919.469 132.533L929.609 127.729L952.573 189.905L939.406 195.49Z" fill="#DA722C"/>
<path d="M874.883 196.644L872.73 120.616H874.883L876.006 196.644H874.883Z" fill="#334A5C"/>
<path d="M831.202 197.986L836.662 197.892V115.843H831.202V197.986Z" fill="#721839"/>
<path d="M796.538 125.545L797.817 198.89L810.672 198.547V125.545H796.538Z" fill="#334A5C"/>
<path d="M775.134 155.495L797.037 153.904L797.349 171.437H775.134V155.495Z" fill="#FF932C"/>
<path d="M934.164 178.362L946.925 174.588L949.952 182.792L936.566 185.85L934.164 178.362Z" fill="#FF932C"/>
<path d="M897.972 133.781H907.644V121.552L898.065 122.457L897.972 133.781Z" fill="#FF932C"/>
<path d="M851.014 174.588H836.662V189.843H850.702L851.014 174.588Z" fill="#FF932C"/>
<path d="M979.218 125.327H957.502V134.967H979.218V125.327Z" fill="#FF932C"/>
<path d="M775.134 133.781L765.587 128.727L733.73 192.932L745.056 199.483L775.134 133.781Z" fill="#33636E"/>
<path d="M745.057 199.483H775.134V133.781L745.057 199.483Z" fill="#334A5C"/>
<path d="M738.036 184.29L749.456 189.843L754.729 178.362L743.559 173.152L738.036 184.29Z" fill="#FF932C"/>
<path d="M1126.55 112.567L1157.66 115.718V189.781L1126.55 190.623V112.567Z" fill="#334A5C"/>
<path d="M982.183 194.46V121.895L1126.55 112.567V190.623L982.183 194.46Z" fill="#33636E"/>
<path d="M1017.75 193.493V112.567L1059.22 109.759L1057.63 192.401L1017.75 193.493Z" fill="#9A134F"/>
<path d="M1059.22 109.759L1094.82 111.475V114.626L1065.08 116.529L1063.27 192.183L1057.63 192.401L1059.22 109.759Z" fill="#721839"/>
<path d="M1104.43 191.216L1105.21 109.759H1114.72L1115.5 190.935L1104.43 191.216Z" fill="#DA722C"/>
<path d="M1114.72 113.316L1115.5 190.935L1119.06 190.623L1118 113.128L1114.72 113.316Z" fill="#B5481B"/>
<path d="M1081.96 191.621L1079.78 115.593H1081.93L1083.05 191.621H1081.96Z" fill="#334A5C"/>
<path d="M1038.25 192.932L1043.71 192.869V110.789H1038.25V192.932Z" fill="#721839"/>
<path d="M1003.59 120.491L1004.9 193.868L1017.75 193.493V119.586L1003.59 120.491Z" fill="#334A5C"/>
<path d="M982.183 150.472L1004.09 148.881L1004.4 166.414H982.183V150.472Z" fill="#FF932C"/>
<path d="M1105.02 128.727H1114.72V116.529L1105.14 117.434L1105.02 128.727Z" fill="#FF932C"/>
<path d="M1058.06 169.565H1043.71V184.789H1057.78L1058.06 169.565Z" fill="#FF932C"/>
<path d="M1602.11 406.041V282.188H1930V430.75L1602.11 406.041Z" fill="#B2404C"/>
<path d="M1680.8 275.262V411.969L1798.49 420.829L1794.81 276.135L1680.8 275.262Z" fill="#33636E"/>
<path d="M1895.12 275.262L1900.95 428.535L1930 430.75V275.262H1895.12Z" fill="#9A134F"/>
<path d="M1798.49 420.829V282.188H1852.03V275.262L1794.81 276.135L1798.49 420.829Z" fill="#334A5C"/>
<path d="M1629.22 282.188V408.069L1666.2 410.877L1662.27 282.188H1629.22Z" fill="#A53139"/>
<path d="M1866.54 425.945V282.188H1895.4L1900.95 428.535L1866.54 425.945Z" fill="#DA722C"/>
<path d="M1842.11 282.188V424.105L1826.54 422.951L1825.91 282.188H1842.11Z" fill="#9A134F"/>
<path d="M1718.05 275.262V402.547L1720.52 275.262H1718.05Z" fill="#334A5C"/>
<path d="M1758.9 417.834L1759.99 275.262L1762.36 418.115L1758.9 417.834Z" fill="#334A5C"/>
<path d="M1718.05 275.262L1719.3 414.87L1762.36 418.115L1759.99 275.262H1718.05Z" fill="#9A134F"/>
<path d="M1719.3 408.381L1762.36 410.877L1761.92 390.973L1719.3 389.507V408.381Z" fill="#FF932C"/>
<path d="M1842.11 302.528H1826.01L1826.07 315.039H1842.11V302.528Z" fill="#FF932C"/>
<path d="M1629.22 308.924V319.625L1663.55 323.711V308.924H1629.22Z" fill="#FF932C"/>
<path d="M1930 305.773H1896.27L1896.65 315.038L1930 316.318V305.773Z" fill="#FF932C"/>
<path d="M1718.05 318.689H1680.8V325.77H1718.05V318.689Z" fill="#FF932C"/>
<path d="M1798.49 399.428L1826.45 400.176L1826.51 416.243L1798.49 414.746V399.428Z" fill="#FF932C"/>
<path d="M880.874 334.537V246.498H1113.94V352.101L880.874 334.537Z" fill="#B2404C"/>
<path d="M1089.17 241.6L1093.29 350.541L1113.94 352.101V241.6H1089.17Z" fill="#9A134F"/>
<path d="M1068.86 348.701V246.498H1089.36L1093.29 350.541L1068.86 348.701Z" fill="#DA722C"/>
<path d="M1051.48 246.498V347.39L1040.4 346.548L1039.97 246.498H1051.48Z" fill="#9A134F"/>
<path d="M1051.48 260.942H1040.03L1040.06 269.865H1051.48V260.942Z" fill="#FF932C"/>
<path d="M1113.94 263.282H1089.98L1090.23 269.864L1113.94 270.769V263.282Z" fill="#FF932C"/>
<path d="M765.586 328.391V248.37H977.377V344.333L765.586 328.391Z" fill="#B2404C"/>
<path d="M816.444 243.908V332.197L892.449 337.937L890.047 244.47L816.444 243.908Z" fill="#33636E"/>
<path d="M892.449 337.937V248.37H927.019V243.908L890.046 244.47L892.449 337.937Z" fill="#334A5C"/>
<path d="M783.121 248.37V329.701L807.021 331.511L804.462 248.37H783.121Z" fill="#A53139"/>
<path d="M936.411 341.244V248.37H955.038L958.626 342.929L936.411 341.244Z" fill="#DA722C"/>
<path d="M920.623 248.37V340.059L910.577 339.31L910.171 248.37H920.623Z" fill="#9A134F"/>
<path d="M840.5 243.908V326.145L842.091 243.908H840.5Z" fill="#334A5C"/>
<path d="M866.864 336.003L867.582 243.908L869.111 336.19L866.864 336.003Z" fill="#334A5C"/>
<path d="M840.5 243.908L841.28 334.069L869.111 336.19L867.582 243.908H840.5Z" fill="#9A134F"/>
<path d="M841.279 329.888L869.11 331.511L868.83 318.657L841.279 317.69V329.888Z" fill="#FF932C"/>
<path d="M920.623 261.535H910.233L910.265 269.615H920.623V261.535Z" fill="#FF932C"/>
<path d="M783.121 265.653V272.579L805.274 275.199V265.653H783.121Z" fill="#FF932C"/>
<path d="M840.5 271.955H816.444V276.541H840.5V271.955Z" fill="#FF932C"/>
<path d="M1095.44 252.924V351.477L1157.19 356.126V253.361L1095.44 252.924Z" fill="#33636E"/>
<path d="M1122.31 284.215H1095.44V289.332H1122.31V284.215Z" fill="#FF932C"/>
<path d="M892.449 324.117L910.483 324.616L910.546 334.974L892.449 334.007V324.117Z" fill="#FF932C"/>
<path d="M1122.34 252.924L1122.87 353.567L1141.71 354.628L1141.28 253.236L1122.34 252.924Z" fill="#9A134F"/>
<path d="M1006.74 246.498L1010.86 344.333L1030.98 346.111L1028.67 246.498H1006.74Z" fill="#33636E"/>
<path d="M1157.25 -30.8477L905.678 -4.4547V58.533L1157.25 35.2909V-30.8477Z" fill="#DA722C"/>
<path d="M1107.05 -31.1909V39.9081L1157.25 35.2909V-36.6817L1107.05 -31.1909Z" fill="#9A134F"/>
<path d="M932.043 56.1932V-12.2541L978.158 -18.9615V51.7632L932.043 56.1932Z" fill="#33636E"/>
<path d="M978.158 -18.9615L1000.62 -14.4067L981.527 -12.41L978.158 51.7631V-18.9615Z" fill="#334A5C"/>
<path d="M1044.52 45.6796V-25.6378L1052.82 -26.9481V44.8997L1044.52 45.6796Z" fill="#33636E"/>
<path d="M1071.73 -21.8629V43.1526L1107.05 39.9081V-25.5754L1071.73 -21.8629Z" fill="#B2404C"/>
<path d="M1011.2 48.7993V-15.5298L1021.59 -16.6217V47.7699L1011.2 48.7993Z" fill="#9A134F"/>
<path d="M994.632 50.3281V-13.7827L981.527 -12.41L978.158 51.7632L994.632 50.3281Z" fill="#B2404C"/>
<path d="M1044.52 35.2909V39.9081H1052.82V33.6375L1044.52 35.2909Z" fill="#FF932C"/>
<path d="M952.573 -15.249V54.2277L966.676 52.855V-17.2769L952.573 -15.249Z" fill="#9A134F"/>
<path d="M905.678 -1.42853L725.899 18.4754L722.654 75.3484L905.678 58.533V-1.42853Z" fill="#9A134F"/>
<path d="M796.538 68.5786L797.349 6.77637L746.367 13.359L745.057 73.2894L796.538 68.5786Z" fill="#DA722C"/>
<path d="M797.349 6.77637L813.355 8.80421L803.589 9.86493L802.122 68.0482L796.538 68.5785L797.349 6.77637Z" fill="#B2404C"/>
<path d="M825.367 7.46275V65.9268L872.73 61.5592L874.352 1.62885L825.367 7.46275Z" fill="#33636E"/>
<path d="M760.001 11.612V71.9167L779.564 70.0448V9.36575L760.001 11.612Z" fill="#33636E"/>
<path d="M873.073 48.7994L905.678 45.6797V51.7632L873.073 54.2278V48.7994Z" fill="#FF932C"/>
<path d="M760.001 23.8102V33.7622L779.564 32.1712V21.7512L760.001 23.8102Z" fill="#FF932C"/>
<path d="M838.16 6.05884L839.751 64.5853L825.367 65.9268V7.46271L838.16 6.05884Z" fill="#DA722C"/>
<path d="M825.367 58.533L839.564 57.3475L839.376 49.9537L825.367 51.5448V58.533Z" fill="#FF932C"/>
<path d="M901.497 540.409L915.413 -73.5259L959.624 -80.2021L955.038 553.137L901.497 540.409Z" fill="url(#paint17_linear_16_5795)"/>
<path d="M959.624 -80.2021L966.114 -76.3025L965.677 554.354L955.038 553.138L959.624 -80.2021Z" fill="#722631"/>
<path d="M941.091 549.831H927.02L938.47 -83.9458L946.988 -78.2991L941.091 549.831Z" fill="#722631"/>
<path d="M938.47 -83.9458L930.545 -75.8033L921.996 545.276L927.019 549.831L938.47 -83.9458Z" fill="url(#paint18_linear_16_5795)"/>
<path d="M965.802 349.48L1010.86 344.333L1006.74 244.47L978.344 247.215L1017.69 246.498L1018.84 223.224L966.114 203.944L965.802 349.48Z" fill="#561A31"/>
<path d="M965.802 194.616L966.114 60.6232L1016.38 78.8114L1015.44 119.742L982.182 121.895V194.46L965.802 194.616Z" fill="#561A31"/>
<g style="mix-blend-mode:multiply" opacity="0.5">
<path d="M545.964 65.9268L541.627 68.9218L538.788 294.23H660.409V75.3484L545.964 65.9268Z" fill="#C27590"/>
</g>
<path d="M549.614 60.9664V286.774H674.573V65.9268L549.614 60.9664Z" fill="url(#paint19_linear_16_5795)"/>
<path d="M549.614 60.9664L545.964 65.9268V283.28L549.614 286.774V60.9664Z" fill="#843031"/>
<path d="M560.254 73.2894L656.758 77.1891V275.636L560.254 274.232V73.2894Z" fill="#F7B495"/>
<path d="M555.168 282.78H671.672L656.758 275.636L560.254 274.232L555.168 282.78Z" fill="#E88B57"/>
<path d="M560.254 73.2894L553.016 63.8677L670.923 70.2632L656.758 79.3729L560.254 73.2894Z" fill="#722631"/>
<g style="mix-blend-mode:multiply" opacity="0.5">
<path d="M656.758 79.3729L568.335 88.4202L560.254 271.955V73.2894L656.758 79.3729Z" fill="#C27590"/>
</g>
<path d="M997.034 46.2724L987.268 43.1526L809.143 597.563L823.932 599.747L997.034 46.2724Z" fill="#561A31"/>
<path d="M987.268 43.1526H979.312L796.631 591.074L809.143 597.563L987.268 43.1526Z" fill="url(#paint20_linear_16_5795)"/>
<path d="M843.588 539.099H832.418L894.258 554.916L895.413 551.266L843.588 539.099Z" fill="#F28C04"/>
<path d="M832.419 539.099L828.238 553.138L889.111 571.607L894.259 554.916L832.419 539.099Z" fill="#CE5920"/>
<path d="M869.235 458.952L858.065 459.327L920.436 472.991L921.434 469.279L869.235 458.952Z" fill="#F28C04"/>
<path d="M858.065 459.327L854.384 473.49L915.849 489.838L920.436 472.991L858.065 459.327Z" fill="#CE5920"/>
<path d="M890.889 390.661L879.75 391.784L942.9 401.268L943.649 397.525L890.889 390.661Z" fill="#F28C04"/>
<path d="M879.75 391.784L877.004 406.166L939.437 418.427L942.9 401.268L879.75 391.784Z" fill="#CE5920"/>
<path d="M910.171 323.711L899.001 324.803L962.713 329.077L963.275 327.455L910.171 323.711Z" fill="#F28C04"/>
<path d="M899.001 324.803L897.441 339.341L960.685 346.423L962.713 329.077L899.001 324.803Z" fill="#CE5920"/>
<path d="M920.467 262.003L916.567 276.541L983.711 278.475L984.241 263.282L920.467 262.003Z" fill="#CE5920"/>
<path d="M938.844 202.728L934.164 217.266L1002.09 219.2L1002.68 201.729L938.844 202.728Z" fill="#CE5920"/>
<path d="M956.473 145.605L952.604 160.205L1020.03 160.767L1020.28 143.296L956.473 145.605Z" fill="#CE5920"/>
<path d="M974.444 88.4826L970.482 103.239L1038.5 101.43L1038.13 83.959L974.444 88.4826Z" fill="#CE5920"/>
<path d="M1064.27 38.8162L1053.85 35.9148L886.115 627.856L901.809 629.603L1064.27 38.8162Z" fill="#561A31"/>
<path d="M1053.85 35.9148L1045.43 36.1956L872.667 621.46L886.115 627.855L1053.85 35.9148Z" fill="url(#paint21_linear_16_5795)"/>
<path d="M952.604 160.205L959.624 165.883L1007.36 165.135L1009.02 159.55L952.604 160.205Z" fill="#792731"/>
<path d="M971.262 103.208L977.939 107.295L1024.87 105.86L1026.77 99.4641L971.262 103.208Z" fill="#792731"/>
<path d="M934.164 217.266L941.683 223.224L990.013 223.973L991.979 217.266H934.164Z" fill="#792731"/>
<path d="M916.567 276.541L923.837 280.284L972.728 282.5L974.008 278.194L916.567 276.541Z" fill="#792731"/>
<path style="mix-blend-mode:color-dodge" opacity="0.5" d="M385.467 -207.332L210.586 637.714H628.584L677.475 -129.463L385.467 -207.332Z" fill="url(#paint22_linear_16_5795)"/>
<path style="mix-blend-mode:color-dodge" opacity="0.5" d="M620.44 -292.813L908.548 -212.947L907.644 649.07L560.254 655.434L620.44 -292.813Z" fill="url(#paint23_linear_16_5795)"/>
<path style="mix-blend-mode:color-dodge" opacity="0.5" d="M529.272 -292.813L431.02 -234.411L327.153 561.186L440.1 575.818L529.272 -292.813Z" fill="url(#paint24_linear_16_5795)"/>
<g style="mix-blend-mode:soft-light">
<path d="M494.046 23.8102C494.046 24.4273 493.863 25.0304 493.52 25.5435C493.177 26.0565 492.69 26.4564 492.12 26.6925C491.55 26.9286 490.922 26.9904 490.317 26.87C489.712 26.7497 489.156 26.4525 488.72 26.0162C488.283 25.5799 487.986 25.024 487.866 24.4189C487.745 23.8137 487.807 23.1864 488.043 22.6164C488.279 22.0463 488.679 21.5591 489.192 21.2163C489.705 20.8735 490.309 20.6905 490.926 20.6905C491.753 20.6905 492.547 21.0192 493.132 21.6042C493.717 22.1893 494.046 22.9828 494.046 23.8102Z" fill="#F7CC9F"/>
</g>
<g style="mix-blend-mode:soft-light">
<path d="M569.427 37.0067C569.36 37.202 569.256 37.3822 569.119 37.5367C568.982 37.6913 568.816 37.8172 568.63 37.9072C568.445 37.9971 568.243 38.0493 568.037 38.0608C567.831 38.0722 567.625 38.0427 567.43 37.9739C567.235 37.9077 567.055 37.8029 566.902 37.6656C566.748 37.5283 566.624 37.3614 566.537 37.1749C566.449 36.9885 566.4 36.7862 566.393 36.5804C566.386 36.3746 566.42 36.1694 566.494 35.9772C566.635 35.5878 566.923 35.2689 567.296 35.0883C567.669 34.9077 568.098 34.8796 568.491 35.0101C568.88 35.1509 569.197 35.4403 569.372 35.8147C569.548 36.1891 569.567 36.6179 569.427 37.0067Z" fill="#F7CC9F"/>
</g>
<g style="mix-blend-mode:soft-light">
<path d="M646.025 30.8608C645.926 31.1271 645.728 31.3444 645.471 31.4667C645.215 31.589 644.921 31.6067 644.652 31.516C644.52 31.4674 644.4 31.3933 644.297 31.2978C644.194 31.2023 644.112 31.0875 644.054 30.9598C643.996 30.8322 643.963 30.6943 643.959 30.5541C643.955 30.414 643.978 30.2743 644.028 30.1433C644.073 30.0129 644.144 29.8929 644.237 29.7905C644.329 29.688 644.441 29.6053 644.567 29.5471C644.692 29.4888 644.827 29.4564 644.965 29.4516C645.103 29.4469 645.241 29.4699 645.37 29.5193C645.503 29.5613 645.626 29.63 645.732 29.7211C645.838 29.8122 645.924 29.9239 645.985 30.0494C646.047 30.1749 646.082 30.3116 646.088 30.4511C646.095 30.5906 646.074 30.73 646.025 30.8608Z" fill="#F7CC9F"/>
</g>
<g style="mix-blend-mode:soft-light">
<path d="M602.656 50.5152C602.459 51.0397 602.065 51.4667 601.558 51.7056C601.051 51.9444 600.471 51.9762 599.942 51.7943C599.547 51.6524 599.203 51.3966 598.953 51.0592C598.704 50.7218 598.56 50.3181 598.54 49.899C598.52 49.4799 598.625 49.0643 598.841 48.7048C599.057 48.3452 599.375 48.0578 599.755 47.879C600.134 47.7001 600.558 47.6378 600.973 47.6999C601.388 47.7621 601.776 47.9458 602.086 48.228C602.397 48.5102 602.617 48.8781 602.718 49.2852C602.819 49.6923 602.798 50.1204 602.656 50.5152Z" fill="#F7CC9F"/>
</g>
<g style="mix-blend-mode:soft-light">
<path d="M432.331 583.087L186.625 587.736L187.249 512.082L360.912 510.397L432.331 583.087Z" fill="#F7EFA4"/>
</g>
<g style="mix-blend-mode:soft-light">
<path d="M535.949 692.996L185.657 700.296L186.562 594.786L439.288 590.169L535.949 692.996Z" fill="#F7EFA4"/>
</g>
<g style="mix-blend-mode:soft-light">
<path d="M738.816 577.284L454.671 582.65L375.202 510.303L588.335 508.213L738.816 577.284Z" fill="#F7EFA4"/>
</g>
<g style="mix-blend-mode:soft-light">
<path d="M971.262 683.917L574.887 692.185L462.439 589.763L754.385 584.429H754.448L971.262 683.917Z" fill="#F7EFA4"/>
</g>
<path d="M243.004 786.338L254.705 -292.813H391.239L389.648 786.338H243.004Z" fill="#843031"/>
<path d="M243.005 786.338L230.68 715.302L235.516 -292.813H254.705L243.005 786.338Z" fill="#722631"/>
<path d="M389.679 754.112L402.409 788.148L242.692 792.048L242.973 753.675L389.679 754.112Z" fill="#9B3431"/>
<path d="M402.409 788.148V799.753H242.692L243.004 786.339L402.409 788.148Z" fill="#722631"/>
<path d="M230.68 715.302L217.669 731.961L242.692 792.048L242.973 753.675L230.68 715.302Z" fill="#843031"/>
<path d="M217.669 731.962V737.546L242.692 799.754L243.004 786.339L217.669 731.962Z" fill="#561A31"/>
<path d="M391.239 355.065L404.343 325.989L243.722 323.711L248.215 355.065H391.239Z" fill="#722631"/>
<path d="M248.215 355.065L232.458 344.333L223.161 317.409L243.722 323.711L248.215 355.065Z" fill="#561A31"/>
<path d="M404.343 325.989L390.334 317.409L250.274 315.943L243.722 323.711L404.343 325.989Z" fill="#9B3431"/>
<path d="M223.161 317.41L232.614 312.075L250.274 315.943L243.722 323.711L223.161 317.41Z" fill="#843031"/>
<path d="M255.485 737.546H379.602V370.788L259.978 371.163L255.485 737.546Z" fill="#722631"/>
<path d="M266.28 718.391H360.787L366.528 381.739H271.366L266.28 718.391Z" fill="#AC4231"/>
<path d="M258.262 731.961L266.28 718.39H360.788L375.202 731.961H258.262Z" fill="#9B3431"/>
<path d="M271.366 381.739L262.817 374.251H374.516L366.528 381.739H271.366Z" fill="#561A31"/>
<path d="M259.978 371.163L262.817 374.251H374.516L379.601 370.788L259.978 371.163Z" fill="#A83C31"/>
<path d="M236.671 731.961L243.004 367.793L232.365 362.084H227.03L226.562 709.218L236.671 731.961Z" fill="#561A31"/>
<path d="M235.672 372.535L233.582 711.745L231.866 707.877L233.769 370.788L235.672 372.535Z" fill="#722631"/>
<path d="M231.866 707.877L227.872 709.437L229.027 364.705L233.769 370.788L231.866 707.877Z" fill="#401A31"/>
<path d="M243.004 367.793L238.199 371.443L227.029 362.084L232.396 359.464L243.004 367.793Z" fill="#A83C31"/>
<path d="M227.872 709.437L234.799 720.949L233.582 711.745L231.866 707.877L227.872 709.437Z" fill="#9B3431"/>
<g opacity="0.5">
<path d="M248.963 137.743L247.466 136.152C248.745 134.936 376.044 13.1095 387.869 -121.944L390.053 -121.757C378.01 14.1078 250.243 136.527 248.963 137.743Z" fill="#722631"/>
<path d="M249.275 231.96L247.154 231.46C247.591 229.589 292.208 44.5565 390.678 28.4586L391.021 30.6112C293.986 46.3972 249.712 230.025 249.275 231.96Z" fill="#722631"/>
<path d="M391.426 317.441H389.242C389.242 315.35 395.919 107.357 354.921 104.518C312.956 101.617 258.948 236.265 251.366 316.193L249.213 315.974C256.951 234.362 309.992 102.365 353.517 102.365H354.984C398.165 105.267 391.707 308.799 391.426 317.441Z" fill="#722631"/>
<path d="M277.855 318.065L275.703 317.753C276.358 313.447 292.052 212.929 339.602 202.884C343.122 202.01 346.801 202.005 350.323 202.869C353.845 203.733 357.104 205.44 359.82 207.844C385.717 230.213 380.912 312.543 380.693 316.037H378.509C378.509 315.194 383.501 231.304 358.385 209.653C355.924 207.478 352.972 205.932 349.781 205.149C346.591 204.367 343.258 204.371 340.07 205.161C293.955 214.739 278.168 317.035 277.855 318.065Z" fill="#722631"/>
<path d="M250.586 100.525L250.336 98.3721C250.898 98.3721 306.498 91.0407 335.203 6.43323C364.001 -78.8294 389.086 -280.271 389.336 -282.299L391.489 -282.05C391.239 -280.022 366.123 -78.3303 337.262 7.11957C308.245 93.131 251.148 100.462 250.586 100.525Z" fill="#722631"/>
<path d="M255.921 65.2405C254.17 65.2508 252.42 65.1571 250.68 64.9597L251.023 62.8071C261.763 63.7713 272.558 61.7181 282.194 56.8787C291.83 52.0393 299.923 44.6059 305.562 35.4157C325.842 3.75025 338.853 -89.3742 335.764 -98.7334C333.611 -96.2688 328.494 -83.1347 323.502 -70.3437C313.487 -44.6682 299.759 -9.50867 287.278 3.34468C266.467 24.7773 251.865 24.8709 251.272 24.9021V22.7183C251.272 22.7183 265.625 22.4999 285.593 1.8472C297.762 -10.6318 311.396 -45.6353 321.349 -71.1237C329.774 -92.7123 332.925 -100.324 335.327 -101.136C335.554 -101.212 335.794 -101.238 336.031 -101.211C336.269 -101.184 336.497 -101.105 336.7 -100.98C336.994 -100.748 337.238 -100.46 337.421 -100.134C337.603 -99.8073 337.718 -99.448 337.761 -99.0766C340.569 -86.2544 327.777 4.62378 307.372 36.5076C301.983 45.3098 294.42 52.5768 285.409 57.6091C276.398 62.6414 266.243 65.2696 255.921 65.2405Z" fill="#722631"/>
</g>
<g style="mix-blend-mode:multiply" opacity="0.2">
<path d="M233.675 92.9438L250.867 158.552L390.771 237.731L391.114 317.877L248.215 316.91L232.614 312.075L233.675 92.9438Z" fill="#722631"/>
</g>
<path style="mix-blend-mode:color-dodge" opacity="0.2" d="M254.705 -292.813L336.232 172.123L366.996 185.85L386.653 -292.813H254.705Z" fill="url(#paint25_linear_16_5795)"/>
<path d="M327.153 786.339L309.462 753.862L389.679 754.112L402.409 788.148L327.153 786.339Z" fill="#D15729"/>
<path d="M317.137 316.661L328.432 324.71L404.343 325.989L390.334 317.409L317.137 316.661Z" fill="#D15729"/>
<path d="M309.462 787.087L293.861 753.862H286.529L298.011 787.087H309.462Z" fill="#D15729"/>
</g>
<path d="M1205.39 686.569L1212.35 689.346L1210.04 695.179L1205.39 686.569Z" fill="#B8134F"/>
<path d="M1259.15 771.582L1282.18 714.023L1544.98 825.71L1520.27 876L1259.15 771.582Z" fill="#811343"/>
<path d="M1282.18 714.023L1225.64 635.936L1471.63 731.15L1544.98 825.71L1282.18 714.023Z" fill="#D1314F"/>
<path d="M1225.64 635.936L1223.61 641.645L1277.53 716.051L1259.46 761.162L1205.39 686.569L1204.68 688.347L1259.15 771.582L1282.18 714.023L1225.64 635.936Z" fill="#9A134F"/>
<path d="M1228.64 648.602L1210.26 693.245L1259.46 761.162L1277.53 716.051L1228.64 648.602Z" fill="#D4F3FF"/>
<path d="M1312.85 736.267L1298.5 741.071L1288.76 765.436L1293.72 777.104L1492.25 853.569L1504.76 852.384L1516 830.296L1507.67 817.037L1312.85 736.267Z" fill="#91224C"/>
<path d="M1223.11 661.081L1262.99 725.036L1259.46 761.162L1277.53 716.051L1228.64 648.602L1223.11 661.081Z" fill="#A2CEF6"/>
<path d="M399.008 756.015L381.941 731.4L522.407 637.339L546.994 646.855L399.008 756.015Z" fill="#145A64"/>
<path d="M399.008 756.015L474.14 761.599L638.069 651.94L507.961 668.911L399.008 756.015Z" fill="#337079"/>
<path d="M381.941 731.4L470.832 730.869L630.362 625.048L522.407 637.339L381.941 731.4Z" fill="#338488"/>
<path d="M630.362 625.048L632.827 628.604L477.291 733.802L470.833 730.869L630.362 625.048Z" fill="#145A64"/>
<path d="M474.14 761.599L474.202 756.077L632.921 647.541L638.069 651.94L474.14 761.599Z" fill="#145A64"/>
<path d="M623.81 634.688L628.833 650.349L474.202 756.077L403.376 752.77L393.735 734.02L477.291 733.802L623.81 634.688Z" fill="#D4F3FF"/>
<path d="M477.291 733.802L393.735 734.02L381.941 731.4L470.832 730.869L477.291 733.802Z" fill="#337079"/>
<path d="M476.636 754.424C477.741 750.72 478.647 746.961 479.35 743.161C479.563 739.91 478.849 736.664 477.291 733.802L623.935 634.688L628.958 650.286L476.636 754.424Z" fill="#A2CEF6"/>
<path d="M396.543 739.48L479.35 740.322L480.442 737.483L477.291 733.802L393.735 734.021L396.543 739.48Z" fill="#A2CEF6"/>
<path d="M81.1343 301.28L46.1582 281.969L128.809 128.197L164.971 149.536L81.1343 301.28Z" fill="#7F134F"/>
<path d="M-12 298.816L-4.79262 302.435L43.8494 286.15L67.5932 299.253L9.71576 309.735L14.0527 311.919L81.1344 301.28L46.1583 281.969L-12 298.816Z" fill="#9A134F"/>
<path d="M128.809 128.197L49.1224 182.574L-12 298.816L46.1583 281.969L128.809 128.197Z" fill="#9A134F"/>
<path d="M16.5798 308.487L67.5931 299.253L43.8493 286.15L0.012207 300.438L16.5798 308.487Z" fill="#D4F3FF"/>
<path d="M9.71582 309.735L11.7127 306.116L16.58 308.487L9.71582 309.735Z" fill="#7F134F"/>
<path d="M107.842 167.412L144.035 187.41L152.428 172.217L116.423 150.628L107.842 167.412Z" fill="#B5434C"/>
<path d="M63.6934 266.682L103.599 194.429L123.88 205.598L85.6275 278.849L63.6934 266.682Z" fill="#B5434C"/>
<path d="M2.10266 301.592L45.0974 290.86L67.5931 299.253L43.8493 286.15L0.012207 300.438L2.10266 301.592Z" fill="#A2CEF6"/>
<path d="M1518.12 699.329V679.706L1803.64 685.852V699.329H1518.12Z" fill="#B8134F"/>
<path d="M1518.12 679.706L1452.19 625.266L1700.39 625.297L1803.64 685.852L1518.12 679.706Z" fill="#EE6D4F"/>
<path d="M1452.19 625.266L1454.09 630.882L1514.56 679.706V689.533L1452.19 637.402V639.336L1518.12 699.329V679.706L1452.19 625.266Z" fill="#CA2F4F"/>
<path d="M1456.81 633.097L1459.71 643.673L1514.56 691.685V679.706L1456.81 633.097Z" fill="#D4F3FF"/>
<path d="M1452.19 637.402H1457.99L1459.71 643.673L1452.19 637.402Z" fill="#B8134F"/>
<path d="M1576.18 680.953V699.329L1697.46 699.235L1699.58 683.605L1576.18 680.953Z" fill="#9A0041"/>
<defs>
<linearGradient id="paint0_linear_16_5795" x1="466.777" y1="467.313" x2="466.777" y2="-100.044" gradientUnits="userSpaceOnUse">
<stop stop-color="#ED8652"/>
<stop offset="1" stop-color="#FBBD6D"/>
</linearGradient>
<linearGradient id="paint1_linear_16_5795" x1="909.89" y1="-236.657" x2="1988.16" y2="668.214" gradientUnits="userSpaceOnUse">
<stop stop-color="#52A2D4"/>
<stop offset="1" stop-color="#1D72C2"/>
</linearGradient>
<linearGradient id="paint2_linear_16_5795" x1="1058.19" y1="869.511" x2="1058.19" y2="467.313" gradientUnits="userSpaceOnUse">
<stop stop-color="#AA4936"/>
<stop offset="1" stop-color="#FF9240"/>
</linearGradient>
<linearGradient id="paint3_linear_16_5795" x1="186.344" y1="622.989" x2="1930" y2="622.989" gradientUnits="userSpaceOnUse">
<stop stop-color="#A23730"/>
<stop offset="1" stop-color="#7F1825"/>
</linearGradient>
<linearGradient id="paint4_linear_16_5795" x1="462.908" y1="324.928" x2="521.534" y2="324.928" gradientUnits="userSpaceOnUse">
<stop stop-color="#AB482C"/>
<stop offset="1" stop-color="#A73C3B"/>
</linearGradient>
<linearGradient id="paint5_linear_16_5795" x1="386.653" y1="477.047" x2="386.653" y2="70.4192" gradientUnits="userSpaceOnUse">
<stop stop-color="#C86D52"/>
<stop offset="1" stop-color="#E0792F"/>
</linearGradient>
<linearGradient id="paint6_linear_16_5795" x1="386.653" y1="477.047" x2="386.653" y2="394.405" gradientUnits="userSpaceOnUse">
<stop stop-color="#BA5943"/>
<stop offset="1" stop-color="#B04947"/>
</linearGradient>
<linearGradient id="paint7_linear_16_5795" x1="521.627" y1="399.428" x2="735.571" y2="399.428" gradientUnits="userSpaceOnUse">
<stop stop-color="#AB482C"/>
<stop offset="1" stop-color="#A73C3B"/>
</linearGradient>
<linearGradient id="paint8_linear_16_5795" x1="521.534" y1="330.544" x2="741.874" y2="330.544" gradientUnits="userSpaceOnUse">
<stop stop-color="#A23730"/>
<stop offset="1" stop-color="#7F1825"/>
</linearGradient>
<linearGradient id="paint9_linear_16_5795" x1="186.344" y1="391.285" x2="255.485" y2="391.285" gradientUnits="userSpaceOnUse">
<stop stop-color="#AB482C"/>
<stop offset="1" stop-color="#A73C3B"/>
</linearGradient>
<linearGradient id="paint10_linear_16_5795" x1="186.344" y1="324.71" x2="259.978" y2="324.71" gradientUnits="userSpaceOnUse">
<stop stop-color="#A23730"/>
<stop offset="1" stop-color="#7F1825"/>
</linearGradient>
<linearGradient id="paint11_linear_16_5795" x1="685.899" y1="555.914" x2="1930" y2="555.914" gradientUnits="userSpaceOnUse">
<stop stop-color="#AB482C"/>
<stop offset="1" stop-color="#892A36"/>
</linearGradient>
<linearGradient id="paint12_linear_16_5795" x1="1310.13" y1="439.735" x2="1310.13" y2="323.711" gradientUnits="userSpaceOnUse">
<stop stop-color="#C86D52"/>
<stop offset="1" stop-color="#E0792F"/>
</linearGradient>
<linearGradient id="paint13_linear_16_5795" x1="779.377" y1="277.477" x2="618.937" y2="-0.507377" gradientUnits="userSpaceOnUse">
<stop stop-color="#AB482C"/>
<stop offset="1" stop-color="#AE4F36"/>
</linearGradient>
<linearGradient id="paint14_linear_16_5795" x1="693.45" y1="187.379" x2="1930" y2="187.379" gradientUnits="userSpaceOnUse">
<stop stop-color="#AB482C"/>
<stop offset="1" stop-color="#892A36"/>
</linearGradient>
<linearGradient id="paint15_linear_16_5795" x1="697.381" y1="23.8102" x2="1930" y2="23.8102" gradientUnits="userSpaceOnUse">
<stop stop-color="#AB482C"/>
<stop offset="1" stop-color="#892A36"/>
</linearGradient>
<linearGradient id="paint16_linear_16_5795" x1="1228.29" y1="668.412" x2="1228.29" y2="-188.208" gradientUnits="userSpaceOnUse">
<stop stop-color="#C25136"/>
<stop offset="1" stop-color="#E0761B"/>
</linearGradient>
<linearGradient id="paint17_linear_16_5795" x1="930.545" y1="553.137" x2="930.545" y2="-80.2021" gradientUnits="userSpaceOnUse">
<stop stop-color="#892A36"/>
<stop offset="1" stop-color="#AB482C"/>
</linearGradient>
<linearGradient id="paint18_linear_16_5795" x1="930.233" y1="549.831" x2="930.233" y2="-83.9458" gradientUnits="userSpaceOnUse">
<stop stop-color="#983436"/>
<stop offset="1" stop-color="#C75F2C"/>
</linearGradient>
<linearGradient id="paint19_linear_16_5795" x1="549.614" y1="173.87" x2="674.573" y2="173.87" gradientUnits="userSpaceOnUse">
<stop stop-color="#AB482C"/>
<stop offset="1" stop-color="#A73C3B"/>
</linearGradient>
<linearGradient id="paint20_linear_16_5795" x1="891.95" y1="597.563" x2="891.95" y2="43.1526" gradientUnits="userSpaceOnUse">
<stop stop-color="#C25136"/>
<stop offset="1" stop-color="#E0761B"/>
</linearGradient>
<linearGradient id="paint21_linear_16_5795" x1="973.549" y1="624.875" x2="953.211" y2="39.4954" gradientUnits="userSpaceOnUse">
<stop stop-color="#C25136"/>
<stop offset="1" stop-color="#E0761B"/>
</linearGradient>
<linearGradient id="paint22_linear_16_5795" x1="444.031" y1="637.714" x2="444.031" y2="-207.332" gradientUnits="userSpaceOnUse">
<stop/>
<stop offset="1" stop-color="#C75C2C"/>
</linearGradient>
<linearGradient id="paint23_linear_16_5795" x1="734.417" y1="655.434" x2="734.417" y2="-292.813" gradientUnits="userSpaceOnUse">
<stop/>
<stop offset="1" stop-color="#C75C2C"/>
</linearGradient>
<linearGradient id="paint24_linear_16_5795" x1="428.212" y1="575.818" x2="428.212" y2="-292.813" gradientUnits="userSpaceOnUse">
<stop/>
<stop offset="1" stop-color="#C75C2C"/>
</linearGradient>
<linearGradient id="paint25_linear_16_5795" x1="320.694" y1="185.85" x2="320.694" y2="-292.813" gradientUnits="userSpaceOnUse">
<stop/>
<stop offset="1" stop-color="#D45C00"/>
</linearGradient>
</defs>
</svg>
