<svg width="46" height="46" viewBox="0 0 46 46" fill="none" xmlns="http://www.w3.org/2000/svg">
<path d="M14.8961 4.67476L16.9603 4.01543C18.8923 3.39826 20.9585 4.39685 21.7865 6.34801L23.4348 10.235C24.1536 11.9274 23.7549 13.9188 22.4497 15.157L18.8214 18.6032C19.045 20.6655 19.7376 22.6953 20.8991 24.6924C22.0036 26.6242 23.4836 28.3153 25.2518 29.6662L29.6142 28.2095C31.2663 27.6594 33.0661 28.2938 34.08 29.7831L36.4413 33.2523C37.622 34.9849 37.4092 37.3731 35.9468 38.8413L34.379 40.4148C32.8188 41.9808 30.5917 42.55 28.5293 41.906C23.6636 40.388 19.1894 35.8819 15.1069 28.3878C11.0193 20.8808 9.5767 14.5124 10.7791 9.28243C11.2851 7.08209 12.8529 5.32834 14.8999 4.67476" fill="white"/>
</svg>
