<svg width="512" height="51" viewBox="0 0 512 51" fill="none" xmlns="http://www.w3.org/2000/svg">
<path d="M498.031 42.911C500.539 46.2074 505.245 46.8464 508.541 44.3383C511.838 41.8301 512.477 37.1246 509.969 33.8282L498.031 42.911ZM0.152671 21.0661C10.0419 33.3782 24.8408 40.8248 42.2311 45.0912C59.6307 49.36 80.2881 50.6128 102.805 50.023C147.793 48.8444 201.905 40.2298 255.352 31.976C309.12 23.6727 362.239 15.7294 406.241 15.5049C428.219 15.3927 447.509 17.2165 463.236 21.6906C478.94 26.158 490.577 33.1144 498.031 42.911L509.969 33.8282C499.923 20.6248 484.994 12.2849 467.34 7.263C449.711 2.24779 428.852 0.389262 406.164 0.505057C360.836 0.736408 306.559 8.89027 253.063 17.1517C199.246 25.4626 146.226 33.8803 102.412 35.0281C80.5276 35.6014 61.3666 34.341 45.8052 30.5233C30.2345 26.7032 18.9296 20.4902 11.8473 11.6728L0.152671 21.0661Z" fill="#FBFF00"/>
</svg>
